<?xml version="1.0" encoding="UTF-8" standalone="no"?>
<!-- Created with Inkscape (http://www.inkscape.org/) -->

<svg
   width="210mm"
   height="297mm"
   viewBox="0 0 210 297"
   version="1.1"
   id="svg1"
   xml:space="preserve"
   xmlns:inkscape="http://www.inkscape.org/namespaces/inkscape"
   xmlns:sodipodi="http://sodipodi.sourceforge.net/DTD/sodipodi-0.dtd"
   xmlns="http://www.w3.org/2000/svg"
   xmlns:svg="http://www.w3.org/2000/svg"><sodipodi:namedview
     id="namedview1"
     pagecolor="#ffffff"
     bordercolor="#999999"
     borderopacity="1"
     inkscape:showpageshadow="0"
     inkscape:pageopacity="0"
     inkscape:pagecheckerboard="0"
     inkscape:deskcolor="#d1d1d1"
     inkscape:document-units="mm"
     inkscape:zoom="0.28551838"
     inkscape:cx="3.5024015"
     inkscape:cy="278.44092"
     inkscape:window-width="1600"
     inkscape:window-height="837"
     inkscape:window-x="-8"
     inkscape:window-y="-8"
     inkscape:window-maximized="1"
     inkscape:current-layer="layer1" /><defs
     id="defs1" /><g
     inkscape:label="Warstwa 1"
     inkscape:groupmode="layer"
     id="layer1"><path
       style="fill:#000000;fill-opacity:1;stroke-width:0.358;stroke-linecap:square;paint-order:markers stroke fill"
       d="m 41.700468,117.57214 -16.034184,27.77202 16.008527,27.72759 H 74.481667 L 90.501066,145.32533 74.685045,117.93118 Z"
       id="path30" /><path
       style="fill:#008080;stroke-width:0.837744;stroke-linecap:square;paint-order:markers stroke fill"
       d="m 304.50532,486.02723 -3.5183,-6.19143 -0.25669,-21.67001 c -0.1738,-14.67181 -0.50052,-22.43396 -1.01169,-24.03561 -1.05666,-3.31082 -4.46305,-6.84479 -8.10988,-8.41362 -7.16924,-3.08412 -10.85719,-3.28775 -65.00243,-3.58907 -51.85332,-0.28857 -64.33646,0.0678 -73.36845,2.09452 -7.52351,1.68822 -11.1257,4.3073 -13.06103,9.49641 -0.85944,2.3044 -1.10659,6.41494 -1.4513,24.1378 -0.41278,21.22295 -0.42568,21.38235 -2.00416,24.76572 -0.87379,1.87291 -2.32648,4.65905 -3.2282,6.19143 l -1.63949,2.78614 0.19067,-29.40929 c 0.21981,-33.90279 0.2161,-33.8757 5.33375,-38.99335 7.474,-7.474 18.78319,-8.66268 82.41763,-8.66268 62.38452,0 74.56759,1.21244 82.11809,8.17225 5.56392,5.12863 6.58801,13.07482 6.28554,48.77093 l -0.17575,20.74129 z"
       id="path2"
       transform="scale(0.26458333)" /><path
       style="fill:#008080;stroke-width:0.837744;stroke-linecap:square;paint-order:markers stroke fill"
       d="m 167.42871,688.784 c -16.88863,-0.97707 -25.19721,-3.1874 -29.95978,-7.97023 -5.21393,-5.23609 -5.22002,-5.27983 -5.44548,-39.07209 -0.21401,-32.07642 -0.44615,-30.32743 3.19136,-24.04396 0.91976,1.58882 1.97404,3.81773 2.34282,4.95314 0.385,1.1853 0.87006,11.16044 1.13908,23.42482 0.29256,13.33719 0.74324,22.24899 1.19985,23.72605 1.01787,3.29261 4.42411,6.83823 8.08056,8.4112 1.69802,0.73047 5.94456,1.80833 9.43675,2.39525 5.68491,0.95545 12.2138,1.06714 62.38188,1.06714 50.16808,0 56.69697,-0.11169 62.38188,-1.06714 10.48464,-1.76212 15.00408,-4.48223 17.25993,-10.38823 0.90573,-2.37128 1.11608,-6.08698 1.4194,-25.07298 l 0.35609,-22.28915 3.59472,-5.88185 3.59473,-5.88186 -0.25701,28.171 c -0.21831,23.92966 -0.41827,28.85046 -1.32805,32.68392 -2.40884,10.14982 -8.83878,14.12504 -26.34568,16.28786 -7.06207,0.87246 -99.67203,1.32067 -113.04305,0.54711 z"
       id="path3"
       transform="scale(0.26458333)" /><path
       style="fill:#008080;stroke-width:0.837744;stroke-linecap:square;paint-order:markers stroke fill"
       d="m 257.56363,588.36889 c 8e-5,-0.10069 2.61538,-11.18834 5.81176,-24.63922 3.19638,-13.45088 5.66304,-24.70452 5.48146,-25.00808 -0.1838,-0.3073 -3.24004,-0.37971 -6.89526,-0.16337 -3.61081,0.21371 -6.92945,0.1571 -7.37474,-0.12581 -0.54621,-0.34702 -0.74765,-1.6032 -0.61914,-3.86106 l 0.19048,-3.34669 h 11.65971 c 10.93814,0 11.71703,0.0766 12.5861,1.23829 0.65501,0.87553 0.81993,2.04601 0.56297,3.99546 -0.72208,5.47799 -11.00587,48.05766 -12.04454,49.86998 -0.99495,1.73604 -1.33556,1.86939 -5.21174,2.0405 -2.28097,0.10069 -4.14715,0.10069 -4.14706,0 z"
       id="path4"
       transform="scale(0.26458333)" /><path
       style="fill:#008080;stroke-width:0.837744;stroke-linecap:square;paint-order:markers stroke fill"
       d="m 229.07753,588.03103 c -0.003,-0.25539 3.66221,-13.21096 8.14481,-28.79015 l 8.15017,-28.32579 h 2.67077 c 1.8632,0 2.59175,0.23402 2.40947,0.77393 -0.14371,0.42566 -3.64447,12.47573 -7.77946,26.77793 -4.13499,14.30221 -7.89505,26.90951 -8.35569,28.01622 -0.72221,1.73519 -1.14021,2.01222 -3.03611,2.01222 -1.20923,0 -2.20101,-0.20896 -2.20396,-0.46436 z"
       id="path5"
       transform="scale(0.26458333)" /><path
       style="fill:#008080;stroke-width:0.837744;stroke-linecap:square;paint-order:markers stroke fill"
       d="m 211.87072,587.75242 c -0.45086,-0.45087 -0.74297,-2.64168 -0.74297,-5.57229 0,-6.8732 -0.52468,-7.30589 -8.85923,-7.30589 -8.19121,0 -8.74124,-0.34976 -8.35703,-5.31428 0.21853,-2.82372 1.81585,-7.42359 6.96955,-20.07058 3.67732,-9.02401 7.11245,-16.89486 7.63362,-17.49079 0.72545,-0.8295 1.91857,-1.0835 5.08966,-1.0835 6.63093,0 6.42609,-0.56876 6.80379,18.89107 0.174,8.96472 0.51118,16.49373 0.7493,16.73113 0.23811,0.2374 1.35257,0.61814 2.47657,0.84608 1.76472,0.35789 2.07098,0.69779 2.24403,2.49048 0.36396,3.77029 -0.28119,5.00039 -2.62253,5.00039 -2.57993,0 -2.84058,0.60493 -2.84058,6.59235 0,6.30324 -0.46881,7.0288 -4.54153,7.0288 -1.79282,0 -3.59401,-0.33434 -4.00265,-0.74297 z m -1.80468,-21.47382 c 0.90289,-0.90136 1.48457,-24.21893 0.60416,-24.21893 -0.80839,0 -9.01095,23.97138 -8.49063,24.81327 0.56513,0.91441 6.84957,0.4408 7.88647,-0.59434 z"
       id="path6"
       transform="scale(0.26458333)" /><path
       style="fill:#008080;stroke-width:0.837744;stroke-linecap:square;paint-order:markers stroke fill"
       d="m 164.07289,588.0441 c -1.37034,-0.52164 -1.83736,-1.47405 -1.84795,-3.76863 -0.0118,-2.55532 -0.24953,-2.10957 9.43129,-17.68393 9.97885,-16.05383 10.59006,-17.38058 10.23952,-22.22679 -0.30535,-4.22147 -1.31629,-5.4008 -4.62963,-5.4008 -2.97508,0 -4.34785,1.70168 -4.82878,5.98573 -0.61415,5.4708 -0.3614,5.23594 -5.41457,5.03136 l -4.49774,-0.18209 0.17534,-4.26701 c 0.30827,-7.50179 3.84672,-13.07921 9.24967,-14.57962 3.64239,-1.0115 9.44655,-0.7754 12.2503,0.49832 3.23475,1.46952 6.26216,4.97048 7.15924,8.27911 1.06198,3.91683 0.3036,9.88452 -1.83762,14.46021 -1.00228,2.14182 -4.90943,8.74311 -8.68256,14.66954 -3.77312,5.92643 -6.86023,10.93524 -6.86023,11.13069 0,0.19544 3.49338,0.44773 7.76305,0.56063 8.40178,0.22217 8.92583,0.44279 8.94433,3.76535 0.005,0.93646 -0.54775,2.25988 -1.2288,2.94093 -1.15406,1.15406 -2.0279,1.23496 -12.84722,1.18941 -6.38491,-0.0269 -12.02685,-0.20797 -12.53764,-0.40241 z"
       id="path7"
       transform="scale(0.26458333)" /><path
       style="fill:#008080;stroke-width:0.837744;stroke-linecap:square;paint-order:markers stroke fill"
       d="m 163.57639,625.84654 c -2.22814,-1.09809 -3.64644,-3.29819 -3.95175,-6.13006 -0.17572,-1.6299 9.8e-4,-1.83085 1.76001,-2.00157 1.72842,-0.16775 2.00248,0.0249 2.36158,1.65986 0.50582,2.30298 1.69113,3.32876 3.54308,3.06622 1.2034,-0.17059 1.45745,-0.62421 1.62045,-2.8934 0.18658,-2.59748 0.0449,-2.83718 -4.07299,-6.89025 -2.34646,-2.30953 -4.62458,-5.06415 -5.0625,-6.12137 -1.09568,-2.64521 -0.33827,-6.06923 1.81995,-8.22745 1.43292,-1.43292 2.30414,-1.76427 4.63874,-1.76427 3.51443,0 4.97312,0.72636 6.19195,3.08332 1.40952,2.72571 1.19357,4.14729 -0.70229,4.62312 -1.90065,0.47703 -2.51177,0.0111 -2.79895,-2.13416 -0.16554,-1.23659 -0.60758,-1.58655 -2.19818,-1.74028 -1.69681,-0.164 -2.05021,0.0436 -2.39193,1.40509 -0.59556,2.37292 0.66921,4.75448 4.4058,8.29612 4.45196,4.21969 5.27132,5.5975 5.33918,8.97814 0.0698,3.47952 -1.28857,5.75321 -4.15207,6.94965 -2.67293,1.11682 -3.82007,1.08815 -6.35008,-0.15871 z"
       id="path8"
       transform="scale(0.26458333)" /><path
       style="fill:#008080;stroke-width:0.837744;stroke-linecap:square;paint-order:markers stroke fill"
       d="m 179.82458,625.38525 c -1.0998,-0.80334 -1.21942,-1.84126 -1.40897,-12.22565 -0.29736,-16.29048 -0.0189,-16.88997 7.66265,-16.49531 3.47169,0.17836 3.68906,0.28073 3.68906,1.73739 0,1.39153 -0.28035,1.56779 -2.77597,1.74531 -3.27608,0.23302 -3.70607,0.74887 -3.70607,4.44612 0,3.56032 0.43532,4.1872 3.08216,4.43841 1.83823,0.17447 2.16159,0.43671 2.16159,1.75302 0,1.33371 -0.31244,1.57391 -2.25836,1.73623 -2.47184,0.20619 -2.98744,1.08197 -2.98744,5.07434 0,4.18885 0.44672,4.81555 3.75709,5.27085 2.67895,0.36845 3.03657,0.59308 3.03657,1.90739 0,1.4377 -0.15814,1.48976 -4.52523,1.48976 -2.92808,0 -4.94942,-0.30984 -5.72708,-0.87786 z"
       id="path9"
       transform="scale(0.26458333)" /><path
       style="fill:#008080;stroke-width:0.837744;stroke-linecap:square;paint-order:markers stroke fill"
       d="m 194.7995,625.31709 c -0.6654,-1.73399 -0.44079,-26.28017 0.25232,-27.57526 0.52847,-0.98746 1.31605,-1.19698 4.48878,-1.19413 8.03035,0.007 10.96801,2.07838 10.96801,7.73293 0,2.48829 -0.38074,3.79148 -1.64882,5.64358 l -1.64883,2.40818 1.6624,6.501 c 0.91432,3.57555 1.65629,6.70997 1.64882,6.96536 -0.007,0.2554 -0.97892,0.46436 -2.15879,0.46436 -2.4739,0 -2.91541,-0.61121 -4.02518,-5.57229 -1.61111,-7.20227 -2.00233,-8.11981 -3.37825,-7.92315 -1.18577,0.16949 -1.31056,0.69219 -1.59593,6.68487 l -0.30957,6.501 -1.93318,0.18812 c -1.34131,0.13052 -2.05216,-0.12193 -2.32178,-0.82457 z m 9.78303,-16.74378 c 1.67576,-1.67577 1.4577,-6.28941 -0.37103,-7.84985 -3.05932,-2.61049 -4.84747,-0.74129 -4.84747,5.06723 v 3.75556 h 2.12278 c 1.16753,0 2.5606,-0.43782 3.09572,-0.97294 z"
       id="path10"
       transform="scale(0.26458333)" /><path
       style="fill:#008080;stroke-width:0.837744;stroke-linecap:square;paint-order:markers stroke fill"
       d="m 234.96366,625.6422 c -0.6867,-1.11111 -1.07776,-19.7127 -0.5141,-24.45438 0.50934,-4.28477 0.53623,-4.334 2.36654,-4.334 2.46255,0 2.64572,1.00735 2.64572,14.54986 0,13.18077 -0.21468,14.48338 -2.42932,14.74013 -0.90268,0.10464 -1.83366,-0.12108 -2.06884,-0.50161 z"
       id="path12"
       transform="scale(0.26458333)" /><path
       style="fill:#008080;stroke-width:0.837744;stroke-linecap:square;paint-order:markers stroke fill"
       d="m 216.79543,611.86804 c -1.43055,-7.91729 -2.59447,-14.60404 -2.58648,-14.85944 0.0241,-0.76981 2.91118,-0.52156 3.60029,0.30958 0.52449,0.63259 3.84394,17.63075 3.84394,19.68398 0,0.32612 0.2159,0.59295 0.47977,0.59295 0.26388,0 1.13629,-4.38818 1.93871,-9.7515 0.80242,-5.36333 1.59148,-10.09977 1.75347,-10.52543 0.16199,-0.42566 1.27008,-0.77393 2.46241,-0.77393 1.93392,0 2.132,0.15034 1.83542,1.39307 -0.18285,0.76619 -1.33784,6.96536 -2.56665,13.77593 -1.2288,6.81057 -2.38193,12.87043 -2.56252,13.46636 -0.24567,0.8107 -0.99164,1.0835 -2.96285,1.0835 h -2.63451 z"
       id="path13"
       transform="scale(0.26458333)" /><path
       style="fill:#008080;stroke-width:0.837744;stroke-linecap:square;paint-order:markers stroke fill"
       d="m 248.39386,625.6281 c -3.20471,-1.95386 -3.83239,-4.28357 -3.83239,-14.22442 0,-12.5226 1.28202,-14.85943 8.1521,-14.85943 2.84148,0 3.88263,0.2925 5.26087,1.47802 1.50921,1.29816 1.7206,1.91973 1.73717,5.10793 0.0182,3.50486 -0.0398,3.63665 -1.68348,3.82579 -1.35832,0.15629 -1.82752,-0.13337 -2.32178,-1.43338 -0.3407,-0.89609 -0.61945,-2.29785 -0.61945,-3.11503 0,-2.76286 -3.61943,-3.40226 -4.97034,-0.87805 -0.65179,1.21788 -0.82419,17.34008 -0.20994,19.63242 0.44439,1.65841 2.94703,2.46898 4.25961,1.37963 0.50637,-0.42025 0.92448,-1.49617 0.92913,-2.39093 0.0181,-3.47841 0.62161,-4.41297 2.8499,-4.41297 2.08756,0 2.09475,0.0101 2.08566,2.94093 -0.0118,3.80544 -1.04122,5.77848 -3.71435,7.11918 -2.83488,1.42184 -5.40249,1.36684 -7.92271,-0.16969 z"
       id="path15"
       transform="scale(0.26458333)" /><path
       style="fill:#00c8c9;fill-opacity:1;stroke-width:0.837744;stroke-linecap:square;paint-order:markers stroke fill"
       d="m 304.37292,485.17697 -3.03157,-5.34117 -0.43643,-22.60618 c -0.47887,-24.80506 -0.42618,-24.4686 -4.46384,-28.50626 -1.11209,-1.11209 -3.46624,-2.66071 -5.23146,-3.44137 -6.48743,-2.86905 -10.21849,-3.02649 -71.72344,-3.02649 -52.69072,0 -58.07785,0.0939 -63.43952,1.10626 -7.47073,1.41052 -12.09073,3.66149 -14.47357,7.05187 -2.29369,3.26352 -2.69602,6.99914 -3.38898,31.46702 l -0.50851,17.95515 -2.62863,5.172 c -1.44574,2.84459 -2.68543,5.07351 -2.75487,4.95314 -0.0694,-0.12037 0.0485,-13.31373 0.26201,-29.31857 0.25291,-18.95569 0.63345,-29.86923 1.09162,-31.30719 1.09464,-3.43546 4.67614,-7.13191 8.93793,-9.22479 8.65991,-4.25273 20.183,-4.99863 77.07054,-4.98886 65.59709,0.0113 74.35732,0.89406 82.33429,8.2971 4.8759,4.5251 5.83796,12.05761 5.59459,43.80319 l -0.1786,23.29631 z"
       id="path16"
       transform="scale(0.26458333)" /><path
       style="fill:#00c8c9;fill-opacity:1;stroke-width:0.837744;stroke-linecap:square;paint-order:markers stroke fill"
       d="m 258.18695,587.41189 c 0.002,-0.2554 0.57624,-2.83258 1.27523,-5.72707 1.94249,-8.04379 9.04235,-39.05281 9.46246,-41.3278 l 0.37159,-2.01221 h -7.41423 -7.41424 v -3.40529 -3.40528 h 10.8757 c 6.31289,0 11.37815,0.26889 12.07329,0.64092 0.83904,0.44904 1.19758,1.29952 1.19758,2.84071 0,3.77832 -10.48324,47.86689 -12.16413,51.15773 -0.80211,1.57039 -1.15699,1.70265 -4.56863,1.70265 -2.03442,0 -3.697,-0.20896 -3.69462,-0.46436 z"
       id="path17"
       transform="scale(0.26458333)" /><path
       style="fill:#00c8c9;fill-opacity:1;stroke-width:0.837744;stroke-linecap:square;paint-order:markers stroke fill"
       d="m 162.21546,688.1473 c -17.10052,-1.6052 -26.0789,-5.86119 -28.58614,-13.55058 -0.93042,-2.85349 -1.52172,-60.71578 -0.61098,-59.78776 0.33419,0.34053 1.49108,2.37078 2.57087,4.51167 l 1.96326,3.89253 0.85479,23.18211 c 0.92824,25.17384 0.89365,24.96377 4.74452,28.81464 2.57995,2.57994 5.66912,3.92567 12.2531,5.33777 4.88441,1.04759 9.51315,1.12873 64.39087,1.12873 54.82728,0 59.51096,-0.0819 64.39087,-1.12631 10.54623,-2.25708 14.96553,-5.86679 16.05735,-13.11576 0.30758,-2.04219 0.74675,-12.90735 0.97593,-24.1448 l 0.41668,-20.43172 3.12981,-5.12004 c 1.7214,-2.81602 3.18402,-5.04494 3.25025,-4.95314 0.0662,0.0918 -0.0838,12.84385 -0.33343,28.3379 -0.48897,30.35072 -0.69058,32.26846 -3.90274,37.12236 -2.97485,4.49529 -8.33487,7.08636 -18.671,9.02567 -4.90713,0.92069 -12.16625,1.06716 -61.28929,1.23662 -30.64757,0.10572 -58.3697,-0.0562 -61.60472,-0.35989 z"
       id="path18"
       transform="scale(0.26458333)" /><path
       style="fill:#00c8c9;fill-opacity:1;stroke-width:0.837744;stroke-linecap:square;paint-order:markers stroke fill"
       d="m 230.29677,587.86115 c -0.59336,-0.36671 1.15414,-7.2185 7.28385,-28.55947 l 8.0645,-28.07702 1.97929,0.0961 c 2.52466,0.12263 2.63534,0.26247 1.92706,2.43482 -0.32333,0.99168 -3.8368,12.92968 -7.80772,26.5289 -3.97091,13.59922 -7.50288,25.34707 -7.84882,26.10632 -0.69453,1.52433 -2.38986,2.21709 -3.59816,1.47031 z"
       id="path19"
       transform="scale(0.26458333)" /><path
       style="fill:#00c8c9;fill-opacity:1;stroke-width:0.837744;stroke-linecap:square;paint-order:markers stroke fill"
       d="m 213.91389,587.88842 c -1.83328,-0.32412 -1.86547,-0.39765 -2.47657,-5.65618 -0.34053,-2.93028 -0.96633,-5.74217 -1.39067,-6.24865 -0.54588,-0.65155 -2.65063,-1.03585 -7.19642,-1.31398 -8.44881,-0.51695 -8.43934,-0.51228 -8.43934,-4.16489 0,-3.34574 2.04539,-9.41233 8.0112,-23.76111 6.06124,-14.57829 6.30298,-14.9732 9.42167,-15.3915 3.27203,-0.43887 5.82252,0.037 6.85303,1.27871 0.55629,0.6703 0.93633,5.49218 1.29945,16.48746 0.28227,8.54706 0.75271,16.14093 1.04542,16.87527 0.31511,0.79052 1.31898,1.50797 2.46092,1.75879 1.85907,0.40832 1.92199,0.52779 1.7423,3.3084 -0.17392,2.69149 -0.33162,2.93161 -2.35341,3.58348 l -2.167,0.69868 -0.44259,4.8736 c -0.24343,2.68048 -0.58897,5.46846 -0.76787,6.19551 -0.35907,1.45927 -2.50183,2.02419 -5.60012,1.47641 z M 210.33006,566.592 c 0.76017,-0.7589 1.03152,-24.53233 0.28001,-24.53233 -0.3474,0 -1.2393,1.60203 -1.982,3.56007 -2.31023,6.09065 -6.78746,19.92428 -6.78746,20.97171 0,0.8404 0.62951,0.95725 4.00066,0.74259 2.20037,-0.14011 4.22032,-0.47403 4.48879,-0.74204 z"
       id="path20"
       transform="scale(0.26458333)" /><path
       style="fill:#00c8c9;fill-opacity:1;stroke-width:0.837744;stroke-linecap:square;paint-order:markers stroke fill"
       d="m 163.60853,587.4662 c -0.45127,-0.18209 -0.77393,-1.42576 -0.77393,-2.98309 0,-2.2868 0.86011,-4.08199 5.98232,-12.48605 12.84096,-21.0683 12.85079,-21.0876 13.11348,-25.73661 0.31844,-5.63562 -0.69774,-7.2965 -4.46425,-7.2965 -3.21352,0 -4.45417,1.14667 -5.02417,4.64357 -1.05297,6.45984 -0.52115,5.88186 -5.4121,5.88186 h -4.37434 l 0.38147,-4.08505 c 0.49464,-5.29705 2.70682,-10.09661 5.70999,-12.38846 2.09798,-1.60106 2.91873,-1.81385 7.73165,-2.00452 4.1719,-0.16527 5.85624,0.0253 7.47917,0.84635 4.96409,2.5113 7.35736,6.3895 7.35736,11.92235 0,6.77901 -1.10491,9.25463 -11.86772,26.59047 -3.00756,4.84432 -5.46829,9.06719 -5.46829,9.38415 0,0.31696 2.71649,0.75222 6.03665,0.96724 9.94985,0.64437 10.06107,0.67879 10.06107,3.11374 0,3.88077 -0.57293,4.04625 -13.82016,3.99172 -6.53085,-0.0269 -12.22254,-0.18941 -12.6482,-0.36117 z"
       id="path21"
       transform="scale(0.26458333)" /><path
       style="fill:#00c8c9;fill-opacity:1;stroke-width:0.837744;stroke-linecap:square;paint-order:markers stroke fill"
       d="m 163.38036,625.33248 c -1.62616,-0.88372 -3.64147,-4.27532 -3.64147,-6.1283 0,-0.64174 0.54151,-0.98993 1.53954,-0.98993 1.17962,0 1.75517,0.51605 2.46183,2.20733 0.82389,1.97184 1.13853,2.18651 2.94924,2.01221 1.93709,-0.18646 2.03517,-0.32171 2.21218,-3.05058 0.18042,-2.7816 0.0643,-2.98715 -4.48879,-7.94638 -4.04609,-4.407 -4.67369,-5.39581 -4.67169,-7.36039 0.003,-3.15554 1.95565,-6.12233 4.46289,-6.78152 4.37118,-1.14926 8.80883,1.36869 8.41284,4.7735 -0.28869,2.48223 -2.63996,2.50985 -3.50056,0.0411 -0.59336,-1.70212 -0.91456,-1.90839 -2.70364,-1.73623 -1.5897,0.15296 -2.075,0.51132 -2.23637,1.6514 -0.37352,2.63882 0.43118,4.13571 4.79931,8.92758 4.85336,5.32419 5.68167,7.53606 4.17369,11.14517 -1.54273,3.69227 -6.13143,5.21182 -9.769,3.23501 z"
       id="path22"
       transform="scale(0.26458333)" /><path
       style="fill:#00c8c9;fill-opacity:1;stroke-width:0.837744;stroke-linecap:square;paint-order:markers stroke fill"
       d="m 182.74933,625.67828 c -1.47619,-0.24261 -2.93465,-0.83716 -3.24102,-1.32122 -0.30637,-0.48405 -0.5613,-6.18143 -0.56651,-12.66083 -0.0117,-14.58408 -0.0337,-14.53284 6.21705,-14.53284 3.88614,0 4.2989,0.1189 4.2989,1.23829 0,0.89924 -0.41276,1.23828 -1.50755,1.23828 -0.82916,0 -2.23557,0.27679 -3.12537,0.61509 -1.53726,0.58447 -1.60863,0.80795 -1.43338,4.48879 l 0.18444,3.8737 2.32179,0.57355 c 2.59155,0.64019 3.39859,2.83173 1.04279,2.83173 -3.01054,0 -3.67415,1.00644 -3.67415,5.57229 0,4.67577 0.64406,5.57228 4.00316,5.57228 1.36941,0 2.82865,1.46712 2.10997,2.12138 -0.62613,0.57001 -4.24008,0.78233 -6.63012,0.38951 z"
       id="path23"
       transform="scale(0.26458333)" /><path
       style="fill:#00c8c9;fill-opacity:1;stroke-width:0.837744;stroke-linecap:square;paint-order:markers stroke fill"
       d="m 207.3193,625.80566 c -1.06144,-0.23768 -2.06252,-2.22958 -2.72618,-5.42441 -0.21221,-1.02158 -0.80666,-3.1966 -1.32099,-4.83337 -0.77582,-2.46887 -1.16207,-2.94361 -2.26684,-2.78615 -1.22133,0.17408 -1.37716,0.71569 -1.88047,6.53602 l -0.54879,6.34622 h -1.773 -1.773 l -0.0517,-6.65579 c -0.10154,-13.06261 0.14653,-20.90448 0.67852,-21.4486 0.74975,-0.76687 7.67228,-0.59398 10.24754,0.25593 1.16811,0.38551 2.54263,1.29883 3.05448,2.0296 1.4704,2.09929 1.18638,7.00894 -0.5798,10.0227 l -1.51043,2.57736 1.49802,5.83547 c 0.82392,3.20951 1.50361,6.15393 1.51044,6.54316 0.015,0.85402 -1.16096,1.31463 -2.55776,1.00186 z m -1.83951,-18.37584 c 1.15484,-2.41989 0.29168,-5.73327 -1.92145,-7.37579 -1.63845,-1.21601 -1.72401,-1.21945 -2.94093,-0.11816 -1.0278,0.93015 -1.25338,1.90345 -1.25338,5.40794 v 4.27364 l 2.62674,-0.19039 c 2.20412,-0.15975 2.76547,-0.48109 3.48902,-1.99724 z"
       id="path24"
       transform="scale(0.26458333)" /><path
       style="fill:#00c8c9;fill-opacity:1;stroke-width:0.837744;stroke-linecap:square;paint-order:markers stroke fill"
       d="m 219.51641,624.93373 c -0.70969,-3.08702 -4.6738,-25.83275 -4.6738,-26.81789 0,-0.71921 0.42212,-0.97774 1.37275,-0.84073 1.16249,0.16755 1.53413,0.90913 2.42629,4.84142 0.57945,2.55397 1.40015,6.87249 1.8238,9.59672 0.72501,4.66221 1.38937,6.50574 2.09147,5.80364 0.24741,-0.24741 3.43026,-18.81488 3.43026,-20.01077 0,-0.1885 0.83585,-0.34273 1.85743,-0.34273 1.0488,0 1.85743,0.32884 1.85743,0.75534 0,0.82665 -4.95727,27.31886 -5.14621,27.50192 -0.0641,0.0621 -1.14881,0.3057 -2.41051,0.54136 -2.0651,0.38573 -2.32742,0.28313 -2.62891,-1.02828 z"
       id="path25"
       transform="scale(0.26458333)" /><path
       style="fill:#00c8c9;fill-opacity:1;stroke-width:0.837744;stroke-linecap:square;paint-order:markers stroke fill"
       d="m 239.13283,611.40368 c 0,-1.19185 0.12741,-1.67943 0.28315,-1.0835 0.15573,0.59592 0.15573,1.57107 0,2.167 -0.15574,0.59592 -0.28315,0.10835 -0.28315,-1.0835 z"
       id="path26"
       transform="scale(0.26458333)" /><path
       style="fill:#00c8c9;fill-opacity:1;stroke-width:0.837744;stroke-linecap:square;paint-order:markers stroke fill"
       d="m 235.04542,624.2509 c -0.49484,-1.84651 -0.49755,-22.68127 -0.003,-25.15269 0.44827,-2.24136 2.28225,-2.65033 3.30611,-0.73724 0.68433,1.27869 0.8992,23.46999 0.25069,25.88993 -0.24793,0.92515 -0.84473,1.39307 -1.77677,1.39307 -0.93203,0 -1.52883,-0.46792 -1.77676,-1.39307 z"
       id="path27"
       transform="scale(0.26458333)" /><path
       style="fill:#00c8c9;fill-opacity:1;stroke-width:0.418872;stroke-linecap:square;paint-order:markers stroke fill"
       d="m 250.55623,626.39033 c -1.56702,-0.45416 -3.89504,-2.20735 -4.49788,-3.38728 -0.95439,-1.86801 -1.2035,-4.23685 -1.2035,-11.44459 0,-9.07627 0.44908,-11.61156 2.35282,-13.28307 1.41227,-1.24 3.17836,-1.67113 6.2005,-1.51367 1.92315,0.1002 2.77036,0.29707 3.66935,0.85268 1.93159,1.19379 2.34089,2.18474 2.34223,5.67069 10e-4,3.0061 -0.004,3.02808 -0.83809,3.34506 -1.87134,0.71149 -2.85579,-0.46204 -3.3323,-3.97229 -0.38061,-2.80387 -2.5719,-3.74392 -4.56897,-1.96005 l -1.01099,0.90306 v 9.95814 9.95814 l 0.86859,0.74773 c 0.63525,0.54687 1.23624,0.74773 2.23725,0.74773 1.75712,0 2.25659,-0.70864 2.52494,-3.58233 0.25554,-2.73648 1.00801,-3.61965 2.96338,-3.47805 l 1.31213,0.095 0.0917,2.47179 c 0.11402,3.07278 -0.45395,4.71207 -2.12955,6.14631 -1.97924,1.69416 -4.73698,2.37553 -6.98163,1.72498 z"
       id="path28"
       transform="scale(0.26458333)" /><path
       style="fill:#00c8c9;fill-opacity:1;stroke-width:0.418872;stroke-linecap:square;paint-order:markers stroke fill"
       d="m 266.83258,625.96236 c -1.13617,-0.61797 -1.55864,-1.77972 -1.86068,-5.11675 -0.34295,-3.7889 -0.34331,-15.0806 -6.1e-4,-18.91293 0.33666,-3.7647 0.83591,-4.78596 2.56759,-5.25226 1.93522,-0.5211 8.84327,-0.27534 9.22467,0.32818 0.34812,0.55088 0.38827,2.17586 0.066,2.67182 -0.12509,0.19251 -1.51918,0.45134 -3.09797,0.57517 -2.31712,0.18173 -2.92886,0.33414 -3.17311,0.79051 -0.40278,0.75261 -0.38869,6.36773 0.0179,7.12743 0.26512,0.49538 0.65954,0.59879 2.28388,0.59879 2.33883,0 2.73536,0.33882 2.59989,2.22152 l -0.0963,1.33855 -2.25777,0.30957 c -1.39434,0.19119 -2.36923,0.48716 -2.54922,0.77393 -0.1603,0.2554 -0.29359,2.13988 -0.29619,4.18773 -0.006,4.9383 0.1009,5.09942 3.39278,5.09942 3.24422,0 3.41305,0.0853 3.41305,1.72487 0,1.01694 -0.14742,1.42795 -0.59879,1.66952 -0.92701,0.49612 -8.6743,0.38751 -9.63511,-0.13507 z"
       id="path29"
       transform="scale(0.26458333)" /><path
       style="fill:#000000"
       d="m 34.685751,182.5502 c -0.02361,-0.0236 -0.03048,-2.41931 -0.03048,-10.62781 0,-10.59733 0,-10.59733 -0.891671,-12.14247 -0.490419,-0.84983 -1.10929,-1.92233 -1.37527,-2.38334 -0.26598,-0.46101 -0.606121,-1.04966 -0.75587,-1.3081 -0.149748,-0.25845 -0.384226,-0.66421 -0.521062,-0.9017 -0.227487,-0.39482 -0.990515,-1.71677 -2.800231,-4.8514 -0.371004,-0.64262 -0.737184,-1.27699 -0.813733,-1.4097 -0.07655,-0.13272 -0.248154,-0.4299 -0.381343,-0.6604 -0.13319,-0.23051 -0.384161,-0.66485 -0.557714,-0.9652 -0.786624,-1.36135 -0.751008,-1.2942 -0.72116,-1.35971 0.02299,-0.0505 0.421057,-0.742 1.980646,-3.44089 0.07669,-0.13271 0.371905,-0.64425 0.65603,-1.13675 0.284125,-0.4925 0.604103,-1.04685 0.711061,-1.2319 0.106959,-0.18505 0.280109,-0.48504 0.384778,-0.66665 0.534159,-0.92681 1.073392,-1.86041 1.225006,-2.1209 0.0935,-0.16065 0.390658,-0.675 0.66034,-1.143 0.269682,-0.46799 0.827066,-1.43383 1.238633,-2.1463 0.411566,-0.71247 0.965901,-1.67259 1.231855,-2.1336 0.265954,-0.46101 0.538923,-0.93282 0.606598,-1.04848 0.123046,-0.21028 0.123046,-0.21028 0.129426,-10.7696 0.0064,-10.55932 0.0064,-10.55932 23.495031,-10.56568 23.48865,-0.006 23.48865,-0.006 23.48865,10.55065 0,10.55702 0,10.55702 1.4392,13.04927 0.79155,1.37073 1.9671,3.40664 2.61231,4.52424 0.64522,1.1176 1.64514,2.84925 2.22204,3.8481 0.57691,0.99886 1.39019,2.40708 1.80729,3.12938 0.4171,0.7223 0.75836,1.33034 0.75836,1.35119 0,0.0208 -0.0384,0.10424 -0.0853,0.18532 -0.0469,0.0811 -0.25666,0.44459 -0.46615,0.80781 -0.20948,0.36322 -0.57563,0.99758 -0.81366,1.4097 -0.73713,1.27623 -1.47293,2.55059 -1.84788,3.2004 -0.19749,0.34226 -0.49103,0.8509 -0.65231,1.1303 -0.16127,0.2794 -0.44496,0.77089 -0.63041,1.0922 -0.18545,0.32131 -0.41976,0.72707 -0.52069,0.9017 -0.10093,0.17462 -0.6784,1.17475 -1.28328,2.2225 -0.60487,1.04775 -1.17905,2.04216 -1.27593,2.2098 -1.38914,2.40356 -1.26363,1.13267 -1.26363,12.79564 0,9.64696 -0.004,10.60642 -0.0402,10.62044 -0.0841,0.0323 -46.887013,0.0173 -46.91934,-0.0151 z m 46.90872,-10.57402 c 0,-5.79057 -0.005,-10.5283 -0.0105,-10.5283 -0.0113,0 -0.15034,0.23826 -1.11885,1.9177 -0.34642,0.60071 -0.70266,1.21628 -0.79164,1.36793 -0.16179,0.27573 -0.16179,0.27573 -0.16179,7.99465 0,7.71892 0,7.71892 -21.3614,7.71892 -21.3614,0 -21.3614,0 -21.3614,-7.72083 0,-7.72083 0,-7.72083 -0.989866,-9.43625 -0.544426,-0.94348 -1.006884,-1.74678 -1.027683,-1.78512 -0.03354,-0.0618 -0.03793,1.12116 -0.03883,10.46495 -10e-4,10.53465 -10e-4,10.53465 23.430483,10.53465 23.4315,0 23.4315,0 23.4315,-10.5283 z m -2.1336,0.79502 c 0,-4.30232 -0.01,-7.61457 -0.022,-7.60095 -0.0121,0.0133 -0.39787,0.67607 -0.85725,1.47289 -4.68381,8.12427 -2.53445,7.35144 -20.42819,7.34524 -16.189345,-0.006 -16.189345,-0.006 -16.981942,-1.3772 -0.747293,-1.2932 -3.730972,-6.46165 -4.127632,-7.15005 -0.100605,-0.1746 -0.187701,-0.32224 -0.193547,-0.32809 -0.0058,-0.006 -0.01063,3.42599 -0.01063,7.62631 0,7.63693 0,7.63693 21.3106,7.63693 21.3106,0 21.3106,0 21.3106,-7.62508 z m -4.66987,0.3026 c 0.27447,-0.47796 1.06986,-1.85772 1.76754,-3.06612 0.69768,-1.20841 1.61464,-2.79718 2.03769,-3.5306 0.42305,-0.73343 0.81853,-1.41351 0.87884,-1.5113 0.0977,-0.1584 1.10224,-1.8999 2.6812,-4.6482 0.29697,-0.51689 0.87323,-1.51702 1.28059,-2.2225 0.40736,-0.70549 1.14657,-1.98565 1.64268,-2.8448 1.19745,-2.07369 3.16605,-5.48385 4.28155,-7.4168 0.49582,-0.85916 0.9381,-1.62522 0.98285,-1.70238 0.0814,-0.14028 0.0814,-0.14028 -0.90063,-1.8415 -1.38163,-2.39356 -3.45667,-5.98842 -4.74999,-8.22902 -0.60478,-1.04775 -1.54183,-2.67081 -2.08232,-3.6068 -0.54049,-0.93599 -1.01129,-1.75895 -1.04621,-1.8288 -0.0349,-0.0699 -0.16656,-0.30416 -0.29252,-0.5207 -0.12595,-0.21653 -0.36393,-0.62801 -0.52884,-0.9144 -1.04742,-1.81896 -1.23988,-2.15024 -1.26911,-2.1844 -0.0255,-0.0298 -2.82539,-4.87228 -4.88649,-8.45125 -0.40823,-0.70887 -32.388705,-0.82711 -32.795333,-0.12125 -0.51,0.8853 -1.286059,2.23023 -2.623494,4.5466 -0.782409,1.35509 -1.623142,2.81242 -1.868296,3.2385 -0.245154,0.42609 -0.452865,0.78042 -0.46158,0.7874 -0.01762,0.0141 -2.003223,3.45458 -2.132914,3.6957 -0.04508,0.0838 -0.164777,0.29528 -0.265985,0.4699 -0.228148,0.39365 -1.22889,2.12656 -2.838324,4.9149 -0.677333,1.17348 -1.874859,3.24803 -2.66117,4.6101 -0.786311,1.36208 -1.793888,3.10747 -2.23906,3.87866 -0.445172,0.77119 -0.809404,1.40824 -0.809404,1.41566 0,0.0127 0.53125,0.93491 3.746513,6.50398 0.709763,1.22936 1.947085,3.37248 2.749604,4.7625 0.80252,1.39001 1.660874,2.87898 1.907455,3.30882 0.824857,1.43789 2.266934,3.94032 2.403902,4.17148 0.287469,0.48516 0.73883,1.26539 3.644074,6.2992 0.814337,1.41097 1.526204,2.64255 1.581926,2.73685 0.101315,0.17145 0.101315,0.17145 16.233766,0.17052 16.13246,-9.2e-4 16.13246,-9.2e-4 16.63149,-0.86995 z M 43.93897,165.95302 c -1.250092,-0.13459 -1.836325,-0.83982 -1.955544,-2.35249 -0.0096,-0.12224 -0.0106,-0.22225 -0.0021,-0.22225 0.0085,0 0.30711,-0.0514 0.663673,-0.1143 0.854816,-0.15071 0.763024,-0.1671 0.784803,0.1401 0.06069,0.85607 0.310258,1.24756 0.773911,1.21403 0.302421,-0.0219 0.421097,-0.20307 0.421097,-0.64293 0,-0.63608 -0.150648,-0.85626 -1.291224,-1.88717 -1.30675,-1.18111 -1.643521,-2.11246 -1.195016,-3.30485 0.504927,-1.3424 2.853331,-1.63028 3.562423,-0.4367 0.302043,0.50841 0.52738,1.5495 0.34342,1.58664 -0.242472,0.0489 -1.30985,0.19767 -1.338849,0.18654 -0.02482,-0.01 -0.03977,-0.0891 -0.05186,-0.27602 -0.04028,-0.62271 -0.178317,-0.89831 -0.47358,-0.94552 -0.439238,-0.0702 -0.713365,0.43686 -0.547644,1.01308 0.0956,0.33239 0.248118,0.51242 1.058446,1.24937 1.251852,1.13849 1.551855,1.66117 1.557176,2.71303 0.0069,1.36393 -0.950101,2.22575 -2.309088,2.07944 z m 0.875605,-0.1359 c 0.943428,-0.27116 1.479569,-1.11755 1.372797,-2.1672 -0.09734,-0.95696 -0.381349,-1.3692 -1.905502,-2.76586 -0.623175,-0.57105 -0.783354,-0.86544 -0.756712,-1.39074 0.0214,-0.42187 0.229332,-0.66238 0.57155,-0.66108 0.414808,0.002 0.558954,0.24076 0.631073,1.04719 0.01226,0.13708 0.02384,0.17146 0.05776,0.17152 0.477767,7.4e-4 1.273491,-0.19868 1.25968,-0.3157 -0.181679,-1.53934 -0.835468,-2.15882 -2.157423,-2.0442 -1.171593,0.10158 -1.842821,0.83716 -1.840476,2.01693 0.0018,0.88416 0.286278,1.38398 1.310246,2.30172 1.066218,0.9556 1.255773,1.2051 1.331319,1.75233 0.07409,0.53664 -0.09575,0.8862 -0.451005,0.92828 -0.508358,0.0602 -0.819335,-0.37329 -0.86378,-1.20408 -0.0167,-0.31222 0.067,-0.29323 -0.699448,-0.1587 -0.318183,0.0558 -0.591332,0.10155 -0.606997,0.10155 -0.05876,0 0.02959,0.69894 0.133247,1.0541 0.318729,1.0921 1.448652,1.66878 2.613671,1.33394 z m 21.692296,0.13409 c -1.15852,-0.0911 -1.74302,-0.67617 -1.96156,-1.96333 -0.0573,-0.33782 -0.0455,-4.15348 0.014,-4.4958 0.23688,-1.36349 0.95017,-1.9212 2.39207,-1.87033 1.5276,0.0539 2.0955,0.76848 2.0955,2.63674 0,0.42739 0,0.42739 -0.8101,0.42739 -0.8101,0 -0.8101,0 -0.8201,-0.67945 -0.015,-1.01668 -0.17268,-1.24798 -0.76683,-1.12463 -0.45438,0.0943 -0.47272,0.20711 -0.47298,2.90965 -2.7e-4,2.79176 0.025,2.90513 0.64848,2.90707 0.48026,0.001 0.56748,-0.17789 0.59247,-1.21864 0.0239,-0.99528 1.61807,-1.0831 1.61392,-0.0889 -0.008,1.9288 -0.7671,2.6985 -2.52486,2.56023 z m 0.9398,-0.10799 c 1.07186,-0.23124 1.48489,-0.87647 1.5169,-2.36969 0.0129,-0.60325 0.0129,-0.60325 -0.72659,-0.60325 -0.73951,0 -0.73951,0 -0.74017,0.43815 -0.002,1.21349 -0.15242,1.50841 -0.74599,1.46076 -0.30389,-0.0244 -0.47691,-0.17611 -0.56495,-0.49543 -0.0631,-0.22877 -0.074,-4.71374 -0.0121,-4.95948 0.0974,-0.38648 0.25574,-0.50756 0.66427,-0.50786 0.51727,-3.8e-4 0.63057,0.21008 0.65282,1.21271 0.0137,0.61595 0.0137,0.61595 0.74986,0.61595 0.73619,0 0.73619,0 0.72255,-0.61595 -0.035,-1.57981 -0.54423,-2.22321 -1.84263,-2.32799 -1.51617,-0.12236 -2.26752,0.45472 -2.51175,1.92919 -0.067,0.40457 -0.0672,3.88536 -2.7e-4,4.30714 0.24497,1.54301 1.29144,2.2494 2.83805,1.91575 z M 47.02507,161.77825 c 0,-4.06417 0,-4.06417 1.7399,-4.06417 1.7399,0 1.7399,0 1.7399,0.59418 0,0.51839 -0.0051,0.59615 -0.04018,0.6096 -0.0221,0.008 -0.433578,0.0154 -0.9144,0.0154 -0.874223,0 -0.874223,0 -0.874223,1.0283 0,1.0283 0,1.0283 0.70485,1.03505 0.70485,0.007 0.70485,0.007 0.70485,0.60365 0,0.5969 0,0.5969 -0.70485,0.60365 -0.70485,0.007 -0.70485,0.007 -0.70485,1.22555 0,1.2188 0,1.2188 0.89859,1.2188 1.082257,0 0.958486,-0.0815 0.949764,0.62551 -0.0069,0.55559 -0.0069,0.55559 -1.753104,0.56211 -1.74625,0.007 -1.74625,0.007 -1.74625,-4.05765 z m 3.429,3.47963 c 0,-0.5334 0,-0.5334 -0.914633,-0.5334 -0.914632,0 -0.914632,0 -0.90805,-1.28905 0.0066,-1.28905 0.0066,-1.28905 0.698733,-1.29581 0.69215,-0.007 0.69215,-0.007 0.69215,-0.55245 0,-0.54569 0,-0.54569 -0.6985,-0.54569 -0.6985,0 -0.6985,0 -0.6985,-1.0922 0,-1.0922 0,-1.0922 0.9017,-1.0922 0.9017,0 0.9017,0 0.9017,-0.5461 0,-0.5461 0,-0.5461 -1.6637,-0.5461 -1.6637,0 -1.6637,0 -1.6637,4.0132 0,4.0132 0,4.0132 1.6764,4.0132 1.6764,0 1.6764,0 1.6764,-0.5334 z m 0.799265,0.5528 c -0.0067,-0.0177 -0.0093,-1.84376 -0.0057,-4.058 0.0065,-4.0259 0.0065,-4.0259 1.174923,-4.0335 1.682701,-0.0109 2.121271,0.0514 2.671641,0.37959 1.09092,0.65058 1.07425,3.1091 -0.0253,3.72964 -0.0779,0.0439 -0.13672,0.0935 -0.13075,0.11004 0.0324,0.0898 1.0531,3.83974 1.0531,3.86889 0,0.0287 -0.14734,0.0347 -0.84584,0.0347 -0.84584,0 -0.84584,0 -1.13321,-1.18745 -0.66781,-2.75949 -0.55925,-2.44475 -0.84325,-2.44475 -0.250763,0 -0.250763,0 -0.257282,1.80975 -0.0065,1.80975 -0.0065,1.80975 -0.826331,1.81645 -0.642217,0.005 -0.822457,-2.5e-4 -0.832023,-0.0254 z m 1.588335,-1.8482 c 0,-1.8288 0,-1.8288 0.314941,-1.8288 0.35467,0 0.23922,-0.31594 0.93747,2.5654 0.2616,1.0795 0.2616,1.0795 1.04129,1.08622 0.42884,0.004 0.7797,-5e-4 0.7797,-0.009 0,-0.0158 -0.17408,-0.65517 -0.74746,-2.74525 -0.34629,-1.26225 -0.33312,-1.15047 -0.14789,-1.25569 0.91745,-0.52115 1.11068,-2.58696 0.31684,-3.38717 -0.49734,-0.50131 -1.07501,-0.62185 -2.983841,-0.62259 -1.03505,-4e-4 -1.03505,-4e-4 -1.03505,4.0128 0,4.0132 0,4.0132 0.762,4.0132 0.762,0 0.762,0 0.762,-1.8288 z m 0.01693,-2.76013 c -0.0093,-0.009 -0.01693,-0.54762 -0.01693,-1.19623 0,-1.21054 0.244541,-1.46442 1.060241,-1.10073 0.66321,0.29571 0.65045,1.92195 -0.0173,2.20922 -0.19874,0.0855 -0.962863,0.15084 -1.025968,0.0877 z m 0.949298,-0.13099 c 0.70401,-0.27489 0.69348,-1.90706 -0.0137,-2.12851 -0.77662,-0.24318 -0.876301,-0.12155 -0.876301,1.06925 0,1.19098 0.136531,1.35347 0.890031,1.05926 z m 4.10462,4.6885 c -0.008,-0.0456 -0.34098,-1.85729 -0.73949,-4.02602 -0.39851,-2.16872 -0.72456,-3.96037 -0.72456,-3.98145 0,-0.12375 1.44407,-0.0425 1.46258,0.0823 0.1424,0.95989 0.87046,5.20882 0.88244,5.14985 0.009,-0.0419 0.13122,-0.82487 0.27267,-1.7399 0.61373,-3.97022 0.44648,-3.51702 1.30077,-3.52463 0.41533,-0.004 0.75514,6e-5 0.75514,0.008 0,0.008 -0.2179,1.20004 -0.48421,2.64833 -0.26632,1.44829 -0.60086,3.26762 -0.74341,4.04296 -0.2592,1.4097 -0.2592,1.4097 -1.1131,1.41638 -0.8539,0.007 -0.8539,0.007 -0.86883,-0.0762 z m 1.68357,-0.10193 c 0.0267,-0.13178 0.41784,-2.25795 1.08288,-5.88645 0.18819,-1.0268 0.34864,-1.89833 0.35655,-1.93675 0.0144,-0.0699 0.0144,-0.0699 -0.67141,-0.0699 -0.6858,0 -0.6858,0 -0.69977,0.0699 -0.008,0.0384 -0.19749,1.25857 -0.4218,2.71145 -0.22432,1.45288 -0.41345,2.66725 -0.42031,2.6986 -0.0423,0.19353 -0.0929,-0.0641 -0.53242,-2.7113 -0.45758,-2.7559 -0.45758,-2.7559 -1.11136,-2.76268 -0.52441,-0.005 -0.65378,-2.2e-4 -0.65378,0.0264 0,0.0182 0.166,0.93569 0.36889,2.03877 0.2029,1.10309 0.5292,2.88001 0.72511,3.94872 0.19592,1.0687 0.36103,1.95739 0.36691,1.97485 0.0423,0.12555 1.58419,0.0283 1.61051,-0.1016 z m 2.26258,-3.87985 c 0,-4.064 0,-4.064 0.8255,-4.064 0.8255,0 0.8255,0 0.8255,4.064 0,4.064 0,4.064 -0.8255,4.064 -0.8255,0 -0.8255,0 -0.8255,-4.064 z m 1.5748,0 c 0,-4.0132 0,-4.0132 -0.762,-4.0132 -0.762,0 -0.762,0 -0.762,4.0132 0,4.0132 0,4.0132 0.762,4.0132 0.762,0 0.762,0 0.762,-4.0132 z m 6.5024,1.7e-4 c 0,-4.06417 0,-4.06417 1.74036,-4.06417 1.74036,0 1.74036,0 1.73355,0.60325 -0.007,0.60325 -0.007,0.60325 -0.91486,0.60992 -0.90805,0.007 -0.90805,0.007 -0.90805,1.03465 0,1.02798 0,1.02798 0.70485,1.03473 0.70485,0.007 0.70485,0.007 0.70485,0.60365 0,0.5969 0,0.5969 -0.70485,0.60365 -0.70485,0.007 -0.70485,0.007 -0.70485,1.22555 0,1.2188 0,1.2188 0.89859,1.2188 1.08225,0 0.95848,-0.0815 0.94976,0.62551 -0.007,0.55559 -0.007,0.55559 -1.7531,0.56211 -1.74625,0.007 -1.74625,0.007 -1.74625,-4.05765 z m 3.429,3.47963 c 0,-0.5334 0,-0.5334 -0.9144,-0.5334 -0.9144,0 -0.9144,0 -0.9144,-1.2954 0,-1.2954 0,-1.2954 0.6985,-1.2954 0.6985,0 0.6985,0 0.6985,-0.5461 0,-0.5461 0,-0.5461 -0.6985,-0.5461 -0.6985,0 -0.6985,0 -0.6985,-1.0922 0,-1.0922 0,-1.0922 0.9017,-1.0922 0.9017,0 0.9017,0 0.9017,-0.5461 0,-0.5461 0,-0.5461 -1.6637,-0.5461 -1.6637,0 -1.6637,0 -1.6637,4.0132 0,4.0132 0,4.0132 1.6764,4.0132 1.6764,0 1.6764,0 1.6764,-0.5334 z m -30.539186,-9.41485 c -0.0094,-0.009 -0.01702,-0.48147 -0.01702,-1.04914 0,-1.15432 -0.11287,-0.85731 0.994512,-2.61701 0.946258,-1.50367 2.435818,-3.8732 2.810233,-4.4704 1.056953,-1.68587 1.349688,-2.35088 1.426042,-3.23954 0.106319,-1.23744 -0.408495,-1.93376 -1.306487,-1.76713 -0.731664,0.13577 -1.017461,0.74785 -1.050951,2.25077 -0.01585,0.7112 -0.01585,0.7112 -1.438249,0.7112 -1.4224,0 -1.4224,0 -1.41711,-0.6223 0.02809,-3.30419 1.362929,-4.90285 4.093151,-4.90211 2.612604,7e-4 4.00304,1.42111 4.00304,4.08931 0,1.64485 -0.241018,2.18275 -2.651801,5.9182 -0.480341,0.74428 -1.148634,1.78175 -1.950824,3.0285 -0.184145,0.2862 -0.184145,0.2862 2.0066,0.2989 2.190744,0.0127 2.190744,0.0127 2.190744,1.1938 0,1.1811 0,1.1811 -3.837435,1.18753 -2.110589,0.004 -3.845091,-0.001 -3.85445,-0.0106 z m 7.653785,-1.17695 c 0,-1.143 0,-1.143 -2.195601,-1.143 -1.427256,0 -2.20106,-0.009 -2.211202,-0.0252 -0.0086,-0.0139 0.483962,-0.7997 1.09454,-1.74625 2.115345,-3.27934 2.175705,-3.37406 2.569633,-4.03241 2.619401,-4.37768 0.538798,-8.33427 -3.90557,-7.42706 -1.829393,0.37343 -2.818043,1.79443 -2.946391,4.23488 -0.06347,1.20674 -0.199534,1.09668 1.355797,1.09668 1.381206,0 1.381206,0 1.39375,-0.70485 0.02996,-1.68361 0.437722,-2.34162 1.416044,-2.28509 0.761447,0.044 1.123776,0.68605 1.038452,1.84017 -0.08685,1.17474 0.103655,0.83189 -4.754751,8.55709 -0.449301,0.71442 -0.449301,0.71442 -0.449301,1.74625 0,1.03183 0,1.03183 3.7973,1.03183 3.7973,0 3.7973,0 3.7973,-1.143 z m 5.232401,-0.62208 c 0,-1.81632 0,-1.81632 -2.2733,-1.81632 -2.273301,0 -2.273301,0 -2.273301,-1.17737 0,-1.17736 0,-1.17736 0.263713,-1.82245 0.145043,-0.35479 0.466215,-1.14229 0.713715,-1.74998 0.247501,-0.6077 0.51125,-1.25349 0.586108,-1.4351 0.09549,-0.23165 2.109115,-5.16359 2.315195,-5.67055 0.0101,-0.025 0.374,-0.0318 1.69929,-0.0318 1.68638,0 1.68638,0 1.68638,4.8006 0,4.8006 0,4.8006 0.7239,4.8006 0.7239,0 0.7239,0 0.7239,1.143 0,1.143 0,1.143 -0.72373,1.143 -0.72373,0 -0.72373,0 -0.73025,1.80975 -0.007,1.80975 -0.007,1.80975 -1.35907,1.81632 -1.35255,0.007 -1.35255,0.007 -1.35255,-1.80975 z m 2.67318,-0.0447 c 0.007,-1.80975 0.007,-1.80975 0.72407,-1.8165 0.71755,-0.007 0.71755,-0.007 0.71755,-1.09855 0,-1.0918 0,-1.0918 -0.72384,-1.0918 -0.72383,0 -0.72383,0 -0.73025,-4.80695 -0.006,-4.80695 -0.006,-4.80695 -1.64067,-4.80695 -1.63426,0 -1.63426,0 -2.05264,1.0287 -0.23011,0.56579 -0.50262,1.23444 -0.60558,1.4859 -0.10296,0.25146 -0.59488,1.45733 -1.093162,2.6797 -0.498281,1.22237 -1.099127,2.69586 -1.335213,3.27442 -0.429246,1.05192 -0.429246,1.05192 -0.429246,2.19062 0,1.13869 0,1.13869 2.266951,1.14517 2.26695,0.006 2.26695,0.006 2.27347,1.81624 0.007,1.80975 0.007,1.80975 1.31428,1.80975 1.30776,0 1.30776,0 1.31428,-1.80975 z m -4.95918,-4.03754 c 0,-0.0172 0.0505,-0.17444 0.11218,-0.34951 0.0617,-0.17506 0.20571,-0.58691 0.32003,-0.9152 0.51076,-1.46678 0.77222,-2.21725 0.86279,-2.4765 0.0983,-0.2813 0.28046,-0.80418 0.71244,-2.0447 0.24047,-0.69056 0.27603,-0.78149 0.27818,-0.7112 10e-4,0.0339 0.004,0.0339 0.0258,0 0.016,-0.0247 0.0226,1.11102 0.0187,3.2385 -0.006,3.2766 -0.006,3.2766 -1.16807,3.28321 -0.90541,0.005 -1.16205,-2.9e-4 -1.16205,-0.0246 z m 2.28437,-3.21416 c -0.002,-3.19405 -0.002,-3.19405 -0.12479,-2.83845 -0.0677,0.19558 -0.33466,0.96139 -0.59315,1.7018 -0.25848,0.74041 -0.69297,1.98628 -0.96551,2.7686 -0.27255,0.78232 -0.50754,1.45383 -0.5222,1.49225 -0.0267,0.0699 -0.0267,0.0699 1.09031,0.0699 1.11697,0 1.11697,0 1.11534,-3.19405 z m 4.6406,9.09247 c -0.007,-0.0113 0.0272,-0.15715 0.0759,-0.3242 0.0487,-0.16704 0.24669,-0.85236 0.44,-1.52292 0.19332,-0.67056 0.4659,-1.61354 0.60573,-2.0955 0.13984,-0.48197 0.46204,-1.59639 0.71602,-2.4765 0.25397,-0.88011 0.66166,-2.29172 0.90596,-3.1369 0.24431,-0.84518 0.56953,-1.97104 0.72272,-2.5019 0.15319,-0.53086 0.34009,-1.17665 0.41532,-1.4351 0.0752,-0.25844 0.23564,-0.81264 0.35646,-1.23155 0.12082,-0.41891 0.22226,-0.76424 0.22541,-0.76739 0.0204,-0.0204 1.67986,-0.008 1.68671,0.013 0.005,0.0135 -0.22691,0.83456 -0.51429,1.82445 -0.28738,0.98989 -0.63019,2.17128 -0.7618,2.6253 -0.13161,0.45403 -0.49807,1.71704 -0.81435,2.8067 -0.31629,1.08966 -0.67716,2.33553 -0.80195,2.7686 -1.6988,5.89553 -1.5066,5.46037 -2.41503,5.46769 -0.45657,0.004 -0.83583,-0.003 -0.84279,-0.0138 z m 2.01314,-1.37087 c 0.21385,-0.73692 0.43249,-1.48844 0.48587,-1.67005 0.10845,-0.36898 0.57915,-1.99109 1.51096,-5.207 0.34406,-1.18745 0.66394,-2.29044 0.71085,-2.4511 0.11863,-0.40629 1.08311,-3.73088 1.23057,-4.2418 0.0665,-0.2305 0.12871,-0.4435 0.13818,-0.47332 0.0214,-0.0672 -1.52534,-0.0962 -1.5759,-0.0295 -0.0137,0.0181 -0.17119,0.5416 -0.34987,1.16326 -0.37135,1.29195 -0.93627,3.25107 -1.29639,4.4958 -0.13539,0.46799 -0.29564,1.02235 -0.35611,1.2319 -0.0605,0.20955 -0.32926,1.14109 -0.59731,2.0701 -0.26806,0.929 -0.62792,2.17487 -0.79969,2.7686 -0.74925,2.58971 -1.05427,3.65039 -1.05427,3.66614 0,0.009 0.35197,0.0169 0.78215,0.0169 0.78215,0 0.78215,0 1.17096,-1.33985 z m 5.59069,1.36228 c 0,-0.0158 0.15938,-0.69887 0.35417,-1.51786 0.1948,-0.81899 0.62967,-2.64922 0.96638,-4.06717 0.87301,-3.67636 1.42424,-5.99585 1.62651,-6.84407 0.21104,-0.88498 0.5062,-0.76211 -1.84838,-0.76946 -1.09775,-0.003 -2.00025,-0.0106 -2.00555,-0.0159 -0.011,-0.011 -0.012,-2.25523 -0.001,-2.2662 0.016,-0.016 6.77196,-0.0421 6.83453,-0.0264 0.31654,0.0794 0.0875,1.85914 -0.6418,4.98679 -1.15438,4.95065 -1.91187,8.2011 -2.19192,9.40564 -0.26279,1.1303 -0.26279,1.1303 -1.67787,1.13686 -1.04144,0.005 -1.41507,-0.001 -1.41507,-0.0222 z m 3.68151,-3.88986 c 0.49511,-2.12678 0.99513,-4.27264 1.11115,-4.76857 0.11601,-0.49594 0.27363,-1.1703 0.35026,-1.4986 1.32364,-5.67069 1.51808,-5.27267 -2.58387,-5.28939 -4.00706,-0.0163 -3.44805,-0.19442 -3.44805,1.09839 0,1.30636 -0.32859,1.12946 2.05928,1.10861 1.80686,-0.0158 1.98195,-0.0137 1.99626,0.0236 0.009,0.0225 -0.0259,0.21413 -0.0767,0.42589 -0.0508,0.21176 -0.21819,0.91651 -0.37199,1.56611 -0.1538,0.64961 -0.40488,1.70688 -0.55797,2.3495 -0.15308,0.64262 -0.38674,1.6256 -0.51923,2.1844 -0.13249,0.5588 -0.45804,1.9304 -0.72344,3.048 -0.2654,1.1176 -0.56354,2.3749 -0.66254,2.794 -0.099,0.4191 -0.18502,0.77629 -0.19116,0.79375 -0.009,0.0251 0.27262,0.0317 1.3533,0.0315 1.36445,-2.8e-4 1.36445,-2.8e-4 2.26466,-3.86715 z M 45.667736,138.81901 c -0.10146,-0.16416 -0.342126,-1.66044 -0.39465,-2.45363 -0.458117,-6.9182 4.546111,-13.09114 11.405565,-14.0693 8.8915,-1.26791 16.44348,6.35478 15.10893,15.2504 -0.0533,0.35498 -0.21025,1.12339 -0.25191,1.23296 -0.0243,0.064 -3.19896,0.10257 -3.29754,0.0401 -0.0275,-0.0175 -0.0193,-0.0675 0.043,-0.26208 0.17918,-0.55935 0.32046,-1.21014 0.39709,-1.82912 0.0631,-0.50932 0.13253,-0.45185 -0.54624,-0.45185 -0.58469,0 -0.58469,0 -0.57785,-0.55245 0.007,-0.55245 0.007,-0.55245 0.6011,-0.55928 0.59425,-0.007 0.59425,-0.007 0.57649,-0.30381 -0.28331,-4.73884 -3.92994,-8.70056 -8.65676,-9.40475 -0.81976,-0.12213 -0.75628,-0.18049 -0.75628,0.69539 0,0.77869 0,0.77869 -0.55245,0.77185 -0.55245,-0.007 -0.55245,-0.007 -0.55917,-0.79061 -0.008,-0.88122 0.0676,-0.82333 -0.90957,-0.70076 -4.784462,0.60015 -8.552944,4.6246 -8.840583,9.44107 -0.01707,0.28575 -0.01707,0.28575 0.746036,0.28575 0.672417,0 0.764933,0.005 0.778519,0.0402 0.0085,0.0221 0.01542,0.25548 0.01542,0.51862 0,0.26315 -0.0069,0.49653 -0.01542,0.51862 -0.01357,0.0354 -0.104646,0.0402 -0.762,0.0402 -0.86371,0 -0.773287,-0.0574 -0.707954,0.44955 0.08338,0.64703 0.220849,1.28177 0.39604,1.82868 0.063,0.19668 0.0714,0.24737 0.04387,0.26482 -0.04615,0.0293 -3.265592,0.0288 -3.283677,-5.2e-4 z m 3.169718,-0.25018 c -0.220821,-0.7045 -0.499093,-2.22825 -0.427952,-2.34336 0.0097,-0.0157 0.29646,-0.0252 0.763367,-0.0252 0.747801,0 0.747801,0 0.747801,-0.48223 0,-0.48222 0,-0.48222 -0.76835,-0.48895 -0.859067,-0.008 -0.801282,0.0514 -0.729285,-0.74332 0.397552,-4.38823 3.78576,-8.13104 8.149116,-9.00201 0.56508,-0.11279 1.6122,-0.22944 1.68607,-0.18782 0.0105,0.006 0.0191,0.36438 0.0191,0.79663 0,0.7859 0,0.7859 0.4953,0.7859 0.4953,0 0.4953,0 0.4953,-0.78998 0,-0.89069 -0.0709,-0.81349 0.6604,-0.71897 4.63455,0.59902 8.31446,4.34771 8.82431,8.98925 0.0995,0.90534 0.12636,0.86277 -0.55026,0.87041 -0.94419,0.0107 -0.95661,0.96607 -0.0127,0.97697 0.59055,0.007 0.59055,0.007 0.58428,0.17192 -0.0183,0.48131 -0.18763,1.40215 -0.37067,2.01561 -0.11099,0.37199 -0.11099,0.37199 1.48256,0.37199 1.59356,0 1.59356,0 1.60587,-0.0572 0.97505,-4.52403 0.005,-8.56378 -2.85409,-11.88085 -2.76933,-3.2134 -7.25011,-5.02053 -11.2874,-4.5523 -6.78492,0.78689 -11.718608,6.00002 -12.026395,12.70754 -0.05507,1.2002 0.04037,2.15279 0.371996,3.71291 0.01485,0.0699 0.01485,0.0699 1.609115,0.0699 1.594268,0 1.594268,0 1.532567,-0.19685 z m 9.497767,-2.06158 c -0.26161,-0.0667 -0.53144,-0.2839 -0.64634,-0.52039 -0.0307,-0.0632 -0.068,-0.11908 -0.083,-0.12423 -0.0149,-0.005 -1.27016,-0.31651 -2.7894,-0.69192 -2.683305,-0.66306 -2.762251,-0.68426 -2.762251,-0.74192 0,-0.0757 0.225536,-0.97792 0.250919,-1.00381 0.01046,-0.0107 1.052702,0.23678 2.316102,0.54988 3.65121,0.90486 3.22009,0.81045 3.32478,0.7281 0.21796,-0.17145 0.46934,-0.24508 0.74991,-0.21966 0.20379,0.0185 0.12026,0.0776 0.96559,-0.68351 1.64053,-1.47709 2.89027,-2.57984 2.91633,-2.57334 0.0522,0.013 0.70317,0.74937 0.70317,0.79543 0,0.023 -0.0543,0.0906 -0.12065,0.15026 -0.0664,0.0597 -0.40069,0.35847 -0.74295,0.66402 -0.34227,0.30555 -0.62802,0.56168 -0.635,0.56918 -0.007,0.007 -0.11557,0.10508 -0.2413,0.21684 -0.12573,0.11176 -0.27432,0.24441 -0.3302,0.29477 -0.0559,0.0504 -0.43593,0.39089 -0.84455,0.75672 -0.74295,0.66515 -0.74295,0.66515 -0.74295,0.82651 0,0.67265 -0.6393,1.17242 -1.28825,1.00707 z m 0.61853,-0.10722 c 0.36664,-0.13717 0.65336,-0.60181 0.60211,-0.97572 -0.0167,-0.12173 -0.0613,-0.0732 0.64326,-0.70018 3.23825,-2.88177 3.05092,-2.66955 2.70271,-3.06177 -0.17559,-0.19778 -0.32669,-0.3578 -0.33577,-0.3556 -0.009,0.002 -0.52915,0.46297 -1.1557,1.0239 -0.62656,0.56094 -1.17574,1.05243 -1.22042,1.0922 -0.0447,0.0398 -0.34944,0.3121 -0.67724,0.60516 -0.59602,0.53284 -0.59602,0.53284 -0.88397,0.5334 -0.31722,6.2e-4 -0.43559,0.0364 -0.63019,0.19053 -0.14044,0.11123 0.2973,0.2041 -3.64325,-0.77293 -1.10236,-0.27332 -2.007118,-0.49399 -2.01058,-0.49039 -0.03183,0.0331 -0.227432,0.93983 -0.204552,0.94817 0.03356,0.0122 4.575472,1.13873 5.142902,1.27554 0.3901,0.0941 0.3901,0.0941 0.45299,0.21817 0.22939,0.45268 0.73828,0.6489 1.2177,0.46952 z m 21.34532,-5.45755 c -0.0149,-0.0279 -0.0215,-0.0508 -0.0145,-0.0508 0.007,0 0.0249,0.0229 0.0399,0.0508 0.0149,0.0279 0.0215,0.0508 0.0145,0.0508 -0.007,0 -0.0249,-0.0229 -0.0399,-0.0508 z m -0.1778,-0.3048 c -0.0149,-0.0279 -0.0215,-0.0508 -0.0145,-0.0508 0.007,0 0.0249,0.0229 0.0399,0.0508 0.0149,0.0279 0.0215,0.0508 0.0145,0.0508 -0.007,0 -0.0249,-0.0229 -0.0399,-0.0508 z m -0.1778,-0.3048 c -0.0149,-0.0279 -0.0215,-0.0508 -0.0145,-0.0508 0.007,0 0.0249,0.0229 0.0399,0.0508 0.0149,0.0279 0.0215,0.0508 0.0145,0.0508 -0.007,0 -0.0249,-0.0229 -0.0399,-0.0508 z m -0.4826,-0.8382 c -0.0149,-0.0279 -0.0215,-0.0508 -0.0145,-0.0508 0.007,0 0.0249,0.0229 0.0399,0.0508 0.0149,0.0279 0.0215,0.0508 0.0145,0.0508 -0.007,0 -0.0249,-0.0229 -0.0399,-0.0508 z m -0.1016,-0.1778 c -0.0149,-0.0279 -0.0215,-0.0508 -0.0145,-0.0508 0.007,0 0.0249,0.0229 0.0399,0.0508 0.0149,0.0279 0.0215,0.0508 0.0145,0.0508 -0.007,0 -0.0249,-0.0229 -0.0399,-0.0508 z m -0.1778,-0.3048 c -0.0149,-0.0279 -0.0215,-0.0508 -0.0145,-0.0508 0.007,0 0.0249,0.0229 0.0399,0.0508 0.0149,0.0279 0.0215,0.0508 0.0145,0.0508 -0.007,0 -0.0249,-0.0229 -0.0399,-0.0508 z m -0.1016,-0.1778 c -0.0149,-0.0279 -0.0215,-0.0508 -0.0145,-0.0508 0.007,0 0.0249,0.0229 0.0399,0.0508 0.0149,0.0279 0.0215,0.0508 0.0145,0.0508 -0.007,0 -0.0249,-0.0229 -0.0399,-0.0508 z m -0.11267,-0.19575 c -0.0138,-0.0362 -0.0109,-0.0391 0.0142,-0.0142 0.0174,0.0172 0.0252,0.0377 0.0173,0.0455 -0.008,0.008 -0.022,-0.006 -0.0316,-0.0313 z m -0.0905,-0.15985 c -0.0149,-0.0279 -0.0215,-0.0508 -0.0145,-0.0508 0.007,0 0.0249,0.0229 0.0399,0.0508 0.0149,0.0279 0.0215,0.0508 0.0145,0.0508 -0.007,0 -0.0249,-0.0229 -0.0399,-0.0508 z m -0.4572,-0.7874 c -0.0149,-0.0279 -0.0215,-0.0508 -0.0145,-0.0508 0.007,0 0.0249,0.0229 0.0399,0.0508 0.0149,0.0279 0.0215,0.0508 0.0145,0.0508 -0.007,0 -0.0249,-0.0229 -0.0399,-0.0508 z m -0.2794,-0.4826 c -0.0149,-0.0279 -0.0215,-0.0508 -0.0145,-0.0508 0.007,0 0.0249,0.0229 0.0399,0.0508 0.0149,0.0279 0.0215,0.0508 0.0145,0.0508 -0.007,0 -0.0249,-0.0229 -0.0399,-0.0508 z m -0.1016,-0.1778 c -0.0149,-0.0279 -0.0215,-0.0508 -0.0145,-0.0508 0.007,0 0.0249,0.0229 0.0399,0.0508 0.0149,0.0279 0.0215,0.0508 0.0145,0.0508 -0.007,0 -0.0249,-0.0229 -0.0399,-0.0508 z m -0.1016,-0.1778 c -0.0149,-0.0279 -0.0215,-0.0508 -0.0145,-0.0508 0.007,0 0.0249,0.0229 0.0399,0.0508 0.0149,0.0279 0.0215,0.0508 0.0145,0.0508 -0.007,0 -0.0249,-0.0229 -0.0399,-0.0508 z m -0.0889,-0.1524 c -0.0217,-0.0419 -0.0337,-0.0762 -0.0267,-0.0762 0.007,0 0.0304,0.0343 0.0521,0.0762 0.0217,0.0419 0.0337,0.0762 0.0267,0.0762 -0.007,0 -0.0304,-0.0343 -0.0521,-0.0762 z m -0.0889,-0.1524 c -0.0149,-0.0279 -0.0215,-0.0508 -0.0145,-0.0508 0.007,0 0.0249,0.0229 0.0399,0.0508 0.0149,0.0279 0.0215,0.0508 0.0145,0.0508 -0.007,0 -0.0249,-0.0229 -0.0399,-0.0508 z m -0.1905,-0.3302 c -0.0217,-0.0419 -0.0337,-0.0762 -0.0267,-0.0762 0.007,0 0.0304,0.0343 0.0521,0.0762 0.0217,0.0419 0.0337,0.0762 0.0267,0.0762 -0.007,0 -0.0304,-0.0343 -0.0521,-0.0762 z m -0.0889,-0.1524 c -0.0149,-0.0279 -0.0215,-0.0508 -0.0145,-0.0508 0.007,0 0.0249,0.0229 0.0399,0.0508 0.0149,0.0279 0.0215,0.0508 0.0145,0.0508 -0.007,0 -0.0249,-0.0229 -0.0399,-0.0508 z m -0.381,-0.6604 c -0.0149,-0.0279 -0.0215,-0.0508 -0.0145,-0.0508 0.007,0 0.0249,0.0229 0.0399,0.0508 0.0149,0.0279 0.0215,0.0508 0.0145,0.0508 -0.007,0 -0.0249,-0.0229 -0.0399,-0.0508 z m -0.127,-0.2286 c -0.0149,-0.0279 -0.0215,-0.0508 -0.0145,-0.0508 0.007,0 0.0249,0.0229 0.0399,0.0508 0.0149,0.0279 0.0215,0.0508 0.0145,0.0508 -0.007,0 -0.0249,-0.0229 -0.0399,-0.0508 z m -0.0762,-0.127 c -0.0149,-0.0279 -0.0215,-0.0508 -0.0145,-0.0508 0.007,0 0.0249,0.0229 0.0399,0.0508 0.0149,0.0279 0.0215,0.0508 0.0145,0.0508 -0.007,0 -0.0249,-0.0229 -0.0399,-0.0508 z m -0.1016,-0.1778 c -0.0149,-0.0279 -0.0215,-0.0508 -0.0145,-0.0508 0.007,0 0.0249,0.0229 0.0399,0.0508 0.015,0.0279 0.0215,0.0508 0.0145,0.0508 -0.007,0 -0.0249,-0.0229 -0.0399,-0.0508 z m -0.0584,-0.0952 c -0.006,-0.0105 -0.0427,-0.0762 -0.0819,-0.14605 -0.0392,-0.0699 -0.0595,-0.11557 -0.0451,-0.1016 0.0367,0.0356 0.16773,0.2667 0.15117,0.2667 -0.007,0 -0.0184,-0.009 -0.0242,-0.019 z m -0.22102,-0.38735 c -0.0149,-0.0279 -0.0215,-0.0508 -0.0145,-0.0508 0.007,0 0.0249,0.0229 0.0399,0.0508 0.0149,0.0279 0.0215,0.0508 0.0145,0.0508 -0.007,0 -0.0249,-0.0229 -0.0399,-0.0508 z m -0.0762,-0.127 c -0.0149,-0.0279 -0.0215,-0.0508 -0.0145,-0.0508 0.007,0 0.0249,0.0229 0.0399,0.0508 0.0149,0.0279 0.0215,0.0508 0.0145,0.0508 -0.007,0 -0.0249,-0.0229 -0.0399,-0.0508 z m -0.1143,-0.2032 c -0.0217,-0.0419 -0.0337,-0.0762 -0.0267,-0.0762 0.007,0 0.0304,0.0343 0.0521,0.0762 0.0217,0.0419 0.0337,0.0762 0.0267,0.0762 -0.007,0 -0.0304,-0.0343 -0.0521,-0.0762 z m -0.0889,-0.1524 c -0.0149,-0.0279 -0.0215,-0.0508 -0.0145,-0.0508 0.007,0 0.0249,0.0229 0.0399,0.0508 0.0149,0.0279 0.0215,0.0508 0.0145,0.0508 -0.007,0 -0.0249,-0.0229 -0.0399,-0.0508 z m -0.1016,-0.1778 c -0.0149,-0.0279 -0.0215,-0.0508 -0.0145,-0.0508 0.007,0 0.0249,0.0229 0.0399,0.0508 0.0149,0.0279 0.0215,0.0508 0.0145,0.0508 -0.007,0 -0.0249,-0.0229 -0.0399,-0.0508 z m -0.0889,-0.1524 c -0.0217,-0.0419 -0.0337,-0.0762 -0.0267,-0.0762 0.007,0 0.0304,0.0343 0.0521,0.0762 0.0217,0.0419 0.0337,0.0762 0.0267,0.0762 -0.007,0 -0.0304,-0.0343 -0.0521,-0.0762 z m -0.1905,-0.3302 c -0.0149,-0.0279 -0.0215,-0.0508 -0.0145,-0.0508 0.007,0 0.0249,0.0229 0.0399,0.0508 0.0149,0.0279 0.0215,0.0508 0.0145,0.0508 -0.007,0 -0.0249,-0.0229 -0.0399,-0.0508 z m -0.0889,-0.1524 c -0.0217,-0.0419 -0.0337,-0.0762 -0.0267,-0.0762 0.007,0 0.0304,0.0343 0.0521,0.0762 0.0217,0.0419 0.0337,0.0762 0.0267,0.0762 -0.007,0 -0.0304,-0.0343 -0.0521,-0.0762 z m -0.1016,-0.1778 c -0.0217,-0.0419 -0.0337,-0.0762 -0.0267,-0.0762 0.007,0 0.0304,0.0343 0.0521,0.0762 0.0217,0.0419 0.0337,0.0762 0.0267,0.0762 -0.007,0 -0.0304,-0.0343 -0.0521,-0.0762 z m -0.1143,-0.2032 c -0.0149,-0.0279 -0.0215,-0.0508 -0.0145,-0.0508 0.007,0 0.0249,0.0229 0.0399,0.0508 0.0149,0.0279 0.0215,0.0508 0.0145,0.0508 -0.007,0 -0.0249,-0.0229 -0.0399,-0.0508 z m -0.0762,-0.127 c -0.0149,-0.0279 -0.0215,-0.0508 -0.0145,-0.0508 0.007,0 0.0249,0.0229 0.0399,0.0508 0.0149,0.0279 0.0215,0.0508 0.0145,0.0508 -0.007,0 -0.0249,-0.0229 -0.0399,-0.0508 z m -0.1016,-0.1778 c -0.0149,-0.0279 -0.0215,-0.0508 -0.0145,-0.0508 0.007,0 0.0249,0.0229 0.0399,0.0508 0.0149,0.0279 0.0215,0.0508 0.0145,0.0508 -0.007,0 -0.0249,-0.0229 -0.0399,-0.0508 z m -0.0762,-0.127 c -0.0149,-0.0279 -0.0215,-0.0508 -0.0145,-0.0508 0.007,0 0.0249,0.0229 0.0399,0.0508 0.0149,0.0279 0.0215,0.0508 0.0145,0.0508 -0.007,0 -0.0249,-0.0229 -0.0399,-0.0508 z m -0.5588,-0.9652 c -0.0149,-0.0279 -0.0215,-0.0508 -0.0145,-0.0508 0.007,0 0.0249,0.0229 0.0399,0.0508 0.0149,0.0279 0.0215,0.0508 0.0145,0.0508 -0.007,0 -0.0249,-0.0229 -0.0399,-0.0508 z m -0.1016,-0.1778 c -0.0149,-0.0279 -0.0215,-0.0508 -0.0145,-0.0508 0.007,0 0.0249,0.0229 0.0399,0.0508 0.0149,0.0279 0.0215,0.0508 0.0145,0.0508 -0.007,0 -0.0249,-0.0229 -0.0399,-0.0508 z m -0.1143,-0.2032 c -0.0217,-0.0419 -0.0337,-0.0762 -0.0267,-0.0762 0.007,0 0.0304,0.0343 0.0521,0.0762 0.0217,0.0419 0.0337,0.0762 0.0267,0.0762 -0.007,0 -0.0304,-0.0343 -0.0521,-0.0762 z m -0.0889,-0.1524 c -0.0149,-0.0279 -0.0215,-0.0508 -0.0145,-0.0508 0.007,0 0.0249,0.0229 0.0399,0.0508 0.0149,0.0279 0.0215,0.0508 0.0145,0.0508 -0.007,0 -0.0249,-0.0229 -0.0399,-0.0508 z m -0.2032,-0.3556 c -0.015,-0.0279 -0.0215,-0.0508 -0.0145,-0.0508 0.007,0 0.0249,0.0229 0.0399,0.0508 0.0149,0.0279 0.0215,0.0508 0.0145,0.0508 -0.007,0 -0.0249,-0.0229 -0.0399,-0.0508 z m -0.1905,-0.3302 c -0.0217,-0.0419 -0.0337,-0.0762 -0.0267,-0.0762 0.007,0 0.0304,0.0343 0.0521,0.0762 0.0217,0.0419 0.0337,0.0762 0.0267,0.0762 -0.007,0 -0.0304,-0.0343 -0.0521,-0.0762 z m -0.0889,-0.1524 c -0.0149,-0.0279 -0.0215,-0.0508 -0.0145,-0.0508 0.007,0 0.0249,0.0229 0.0399,0.0508 0.0149,0.0279 0.0215,0.0508 0.0145,0.0508 -0.007,0 -0.0249,-0.0229 -0.0399,-0.0508 z m -0.1016,-0.1778 c -0.015,-0.0279 -0.0215,-0.0508 -0.0145,-0.0508 0.007,0 0.0249,0.0229 0.0399,0.0508 0.0149,0.0279 0.0215,0.0508 0.0145,0.0508 -0.007,0 -0.0249,-0.0229 -0.0399,-0.0508 z m -0.0762,-0.127 c -0.015,-0.0279 -0.0215,-0.0508 -0.0145,-0.0508 0.007,0 0.0249,0.0229 0.0399,0.0508 0.0149,0.0279 0.0215,0.0508 0.0145,0.0508 -0.007,0 -0.0249,-0.0229 -0.0399,-0.0508 z m -0.0762,-0.127 c -0.015,-0.0279 -0.0215,-0.0508 -0.0145,-0.0508 0.007,0 0.0249,0.0229 0.0399,0.0508 0.0149,0.0279 0.0215,0.0508 0.0145,0.0508 -0.007,0 -0.0249,-0.0229 -0.0399,-0.0508 z m -0.0987,-0.17808 c -0.0313,-0.0557 -0.0516,-0.10132 -0.0451,-0.10132 0.0172,0 0.1222,0.1825 0.11129,0.19342 -0.005,0.005 -0.0348,-0.0364 -0.0662,-0.0921 z m -0.11719,-0.20292 c -0.0217,-0.0419 -0.0337,-0.0762 -0.0267,-0.0762 0.007,0 0.0304,0.0343 0.0521,0.0762 0.0217,0.0419 0.0337,0.0762 0.0267,0.0762 -0.007,0 -0.0304,-0.0343 -0.0521,-0.0762 z m -0.0773,-0.12869 c -0.009,-0.0149 -0.0113,-0.0325 -0.005,-0.0392 0.007,-0.007 0.0189,0.006 0.0271,0.0271 0.0172,0.0448 0.003,0.0526 -0.0225,0.0121 z m 8.19255,1.05579 c 0,-10.4775 0,-10.4775 -23.4315,-10.4775 -23.4315,0 -23.4315,0 -23.4315,10.46903 0,5.75797 0.006,10.46303 0.01335,10.45569 0.0073,-0.007 0.4674,-0.79506 1.02235,-1.75049 1.009,-1.73713 1.009,-1.73713 1.0217,-9.42063 0.0127,-7.6835 0.0127,-7.6835 21.36775,-7.68986 21.35505,-0.006 21.35505,-0.006 21.35505,7.66287 0,7.66924 0,7.66924 0.17428,7.96927 0.0958,0.16501 0.51458,0.88867 0.93051,1.60812 0.41592,0.71946 0.80091,1.38525 0.85553,1.47955 0.0546,0.0943 0.10453,0.17145 0.1109,0.17145 0.006,0 0.0116,-4.71487 0.0116,-10.4775 z m -44.403961,6.2103 c 5.145516,-8.99655 3.297508,-8.26718 20.962241,-8.27341 16.19002,-0.006 16.19002,-0.006 17.30609,1.9304 3.22229,5.58987 3.95954,6.86582 3.97981,6.88784 0.0127,0.0138 0.0222,-3.22315 0.0222,-7.55015 0,-7.57428 0,-7.57428 -21.3106,-7.57428 -21.3106,0 -21.3106,0 -21.3106,7.58755 0,6.32122 0.0056,7.57919 0.03378,7.53745 0.01858,-0.0275 0.161256,-0.27298 0.317061,-0.5454 z"
       id="path1" /><path
       style="fill:#ffffff;fill-opacity:1;stroke-width:0.592375;stroke-linecap:square;paint-order:markers stroke fill"
       d="m 172.48179,521.96728 c -0.80711,-3.5549 -1.05037,-12.87602 -0.44448,-17.03174 3.15775,-21.65876 19.81916,-38.30147 42.21378,-42.16642 22.56652,-3.89461 46.87033,10.91324 54.55073,33.23672 2.33599,6.78966 3.0874,16.99608 1.81463,24.64804 l -0.60078,3.61185 h -5.39314 c -2.96623,0 -5.49853,-0.17052 -5.62733,-0.37893 -0.12881,-0.20841 0.0532,-1.73524 0.40436,-3.39295 0.3512,-1.65772 0.64197,-3.65431 0.64615,-4.43688 0.007,-1.32924 -0.0908,-1.42285 -1.48889,-1.42285 -2.16796,0 -2.88151,-0.39372 -2.88151,-1.58997 0,-1.13743 1.34218,-1.91243 3.312,-1.91243 0.99449,0 1.0658,-0.15418 1.06293,-2.29845 -0.0114,-8.51957 -5.73047,-19.66202 -13.47465,-26.25247 -5.68718,-4.83991 -14.08591,-8.54919 -19.86501,-8.77333 l -2.77578,-0.10766 -0.13034,2.73625 -0.13034,2.73625 h -1.51142 c -1.48532,0 -1.51151,-0.0321 -1.51738,-1.86065 -0.003,-1.02336 -0.13167,-2.33031 -0.2853,-2.90433 -0.27053,-1.01088 -0.3787,-1.03528 -3.44143,-0.77639 -10.87481,0.91926 -22.11438,8.01776 -28.43623,17.95927 -3.05684,4.80708 -5.34936,11.74508 -5.58911,16.91471 l -0.11167,2.4079 1.7512,0.11669 c 3.42051,0.22793 3.78828,0.42786 3.63847,1.97788 -0.13574,1.40448 -0.14258,1.40814 -2.87232,1.53817 -1.77111,0.0844 -2.73422,0.316 -2.7305,0.6567 0.003,0.2895 0.3946,2.39796 0.86985,4.68547 0.47525,2.2875 0.86668,4.20835 0.86985,4.26855 0.003,0.0602 -2.53906,0.10945 -5.64937,0.10945 h -5.65513 z"
       id="path31"
       transform="scale(0.26458333)" /><path
       style="fill:#ffffff;fill-opacity:1;stroke-width:0.592375;stroke-linecap:square;paint-order:markers stroke fill"
       d="m 218.96629,514.27325 c -1.01686,-1.08323 -2.42733,-1.55222 -11.38165,-3.78442 l -10.22095,-2.54796 0.26556,-1.3278 c 0.14605,-0.73029 0.34906,-1.41131 0.45112,-1.51337 0.10206,-0.10206 4.84482,0.94072 10.53946,2.31727 7.6195,1.84185 10.48293,2.37381 10.84245,2.01429 0.26869,-0.2687 0.99633,-0.48854 1.61696,-0.48854 1.51292,0 2.29772,-0.58281 9.36903,-6.95755 l 6.07566,-5.47719 0.81969,1.01227 c 0.45083,0.55675 0.81968,1.17833 0.81968,1.38129 0,0.20296 -2.93959,2.98853 -6.53242,6.19015 -4.48091,3.993 -6.54328,6.11994 -6.567,6.77259 -0.019,0.5233 -0.54462,1.55761 -1.168,2.29845 -1.49654,1.77854 -3.3253,1.81954 -4.92959,0.11052 z"
       id="path32"
       transform="scale(0.26458333)" /></g></svg>
