<?xml version="1.0" encoding="UTF-8" standalone="no"?>
<!-- Created with Inkscape (http://www.inkscape.org/) -->

<svg
   width="210mm"
   height="297mm"
   viewBox="0 0 210 297"
   version="1.1"
   id="svg1"
   xml:space="preserve"
   inkscape:export-filename="photo1t.svg"
   inkscape:export-xdpi="96"
   inkscape:export-ydpi="96"
   xmlns:inkscape="http://www.inkscape.org/namespaces/inkscape"
   xmlns:sodipodi="http://sodipodi.sourceforge.net/DTD/sodipodi-0.dtd"
   xmlns="http://www.w3.org/2000/svg"
   xmlns:svg="http://www.w3.org/2000/svg"><sodipodi:namedview
     id="namedview1"
     pagecolor="#ffffff"
     bordercolor="#999999"
     borderopacity="1"
     inkscape:showpageshadow="0"
     inkscape:pageopacity="0"
     inkscape:pagecheckerboard="0"
     inkscape:deskcolor="#d1d1d1"
     inkscape:document-units="mm"
     inkscape:zoom="0.57103676"
     inkscape:cx="397.52257"
     inkscape:cy="561.25984"
     inkscape:window-width="1600"
     inkscape:window-height="837"
     inkscape:window-x="-8"
     inkscape:window-y="-8"
     inkscape:window-maximized="1"
     inkscape:current-layer="layer1" /><defs
     id="defs1" /><g
     inkscape:label="Warstwa 1"
     inkscape:groupmode="layer"
     id="layer1"><rect
       style="fill:#ffffff;stroke-width:0.658;stroke-linecap:square;stroke-opacity:0.968627;paint-order:markers stroke fill"
       id="rect1"
       width="153.82841"
       height="149.65834"
       x="39.847111"
       y="56.527302"
       rx="7.8767538"
       ry="2.8958657" /><path
       style="fill:#333333"
       d="M 31.893986,135.06318 V 47.486101 h 81.623954 81.62395 v 87.577079 87.57708 H 113.51794 31.893986 Z m 86.111244,67.20416 c 0.15061,0 6.91463,-3.8791 9.00646,-5.1651 1.01864,-0.62625 3.28083,-1.959 5.02708,-2.96167 11.35653,-6.52077 21.62193,-12.54063 36.90937,-21.64448 3.71078,-2.20982 7.97185,-4.66038 9.46904,-5.44569 l 2.72216,-1.42785 -0.0529,-11.10625 -0.0529,-11.10626 0.77037,-0.48733 c 0.4237,-0.26803 1.51969,-0.8539 2.43553,-1.30194 2.11084,-1.03263 2.31694,-1.4047 1.91365,-3.45462 -0.25485,-1.29536 -0.2477,-1.62894 0.0385,-1.79568 1.83562,-1.06948 5.24902,-3.34685 5.33023,-3.55625 0.0564,-0.14552 0.0458,-1.59166 -0.0235,-3.21364 -0.12291,-2.87363 -0.14391,-2.95719 -0.82089,-3.26658 -0.38212,-0.17464 -2.36039,-0.43382 -4.39616,-0.57596 -2.03578,-0.14214 -3.74392,-0.30095 -3.79588,-0.35291 -0.052,-0.052 0.24445,-0.90649 0.6587,-1.89894 0.74615,-1.78764 0.75391,-1.86317 0.83277,-8.10131 0.0788,-6.23589 0.0732,-6.31082 -0.58189,-7.74171 -0.36382,-0.79469 -1.02382,-1.77582 -1.46668,-2.18031 -0.78243,-0.71464 -0.8079,-0.8128 -0.90112,-3.47303 l -0.0959,-2.737599 -3.14719,-1.62404 c -3.37236,-1.74023 -8.21638,-4.54812 -17.3024,-10.02956 -3.1287,-1.88749 -6.0254,-3.62298 -6.43711,-3.85664 -1.58222,-0.89799 -11.76428,-6.99307 -13.27435,-7.94616 -0.87313,-0.55107 -4.86172,-2.93716 -8.86354,-5.30242 -4.00182,-2.36525 -9.35215,-5.53542 -11.88961,-7.04481 l -4.61357,-2.74435 -3.72081,2.15517 c -2.04644,1.18534 -5.38767,3.13318 -7.42497,4.32853 -2.03729,1.19535 -5.906818,3.45836 -8.598953,5.02891 -5.334743,3.11208 -11.625539,6.84221 -24.077283,14.27648 -14.270283,8.52002 -19.690391,11.71429 -20.637499,12.16244 l -0.926041,0.43819 0.07839,4.669669 0.07839,4.66968 -1.004436,2.05791 -1.004436,2.05792 -1.689094,0.002 c -2.185251,0.003 -3.528492,0.41946 -4.449315,1.37988 l -0.740757,0.77261 -0.08063,5.82528 -0.08063,5.82528 0.919988,0.86766 0.919989,0.86766 0.140443,6.58557 c 0.07724,3.62207 0.222646,7.44878 0.323116,8.50381 0.15506,1.62827 0.121217,1.91823 -0.223889,1.91823 -0.223609,0 -0.449819,0.14882 -0.502689,0.33073 -0.05287,0.1819 -0.03584,3.07465 0.03784,6.42834 0.143577,6.53504 0.216026,6.88435 1.688397,8.14032 0.632876,0.53986 4.305603,2.40785 5.187694,2.63853 0.513255,0.13422 0.566718,0.30211 0.49641,1.55885 l -0.07879,1.40843 1.711796,0.89405 c 2.188087,1.1428 10.577647,6.09326 28.302421,16.70049 5.122705,3.06564 11.11801,6.60701 17.462499,10.31493 1.81901,1.06309 4.855099,2.84866 6.746879,3.96793 1.89177,1.11927 4.80879,2.78797 6.48228,3.70823 1.67349,0.92025 3.3999,1.87035 3.83646,2.11133 0.76919,0.42458 0.83299,0.41508 2.06216,-0.30701 0.69763,-0.40984 1.31269,-0.74516 1.3668,-0.74516 z m -6.08044,-6.05528 c -3.24378,-1.80394 -8.62497,-4.96657 -24.600598,-14.4582 -4.947708,-2.93959 -9.948333,-5.88924 -11.112499,-6.55478 -2.266593,-1.29577 -8.580343,-4.25253 -10.991289,-5.14727 -3.632803,-1.3482 -7.532863,-3.4152 -8.521731,-4.51646 -0.545704,-0.60772 -0.992188,-1.3025 -0.992188,-1.54396 0,-0.24146 -0.29717,-0.94609 -0.660377,-1.56586 -0.706172,-1.20499 -1.033957,-1.36963 -4.115389,-2.0671 -2.577315,-0.58337 -4.58218,-1.40319 -5.300966,-2.16765 -0.625063,-0.66478 -0.64077,-0.79491 -0.725637,-6.01182 l -0.08674,-5.33233 0.724832,-0.57796 0.724831,-0.57796 -0.307507,-1.80803 c -0.169129,-0.99443 -0.449668,-4.20561 -0.62342,-7.13598 -0.283243,-4.77696 -0.269547,-5.5437 0.132441,-7.41438 0.573856,-2.67047 0.569467,-2.73581 -0.183794,-2.73581 -0.34768,0 -0.913227,-0.22737 -1.25677,-0.50528 -0.612271,-0.49528 -0.626241,-0.60749 -0.70635,-5.67369 l -0.08173,-5.16841 0.796191,-0.41172 c 0.563389,-0.29134 1.563039,-0.41173 3.418842,-0.41173 h 2.622651 l 0.845942,-1.71835 c 0.99294,-2.01695 1.914131,-3.17983 2.938607,-3.70961 1.116358,-0.57729 4.86751,-1.16188 10.311009,-1.60688 5.40133,-0.44156 5.767156,-0.56448 6.612692,-2.22187 l 0.534082,-1.04689 -0.791429,-0.40926 c -0.843907,-0.4364 -1.221858,-1.33653 -0.937447,-2.23263 l 0.174011,-0.54826 h 20.479813 20.479807 l 0.23839,0.8599 c 0.17073,0.61583 0.13705,1.02359 -0.11867,1.43665 -0.3011,0.48637 -0.29838,0.68984 0.0174,1.29845 0.20593,0.39694 0.5101,1.28729 0.67594,1.97857 0.28654,1.19443 0.33665,1.24679 1.00857,1.05398 0.38889,-0.11159 1.71909,-0.86216 2.95602,-1.66793 1.23693,-0.80578 3.38005,-2.0882 4.7625,-2.84983 8.66965,-4.776359 10.84528,-5.283949 22.62188,-5.277799 9.05957,0.005 15.23179,0.47965 22.0927,1.69993 1.23693,0.22 2.40048,0.40219 2.58568,0.40487 0.18519,0.003 1.35693,1.070339 2.60387,2.372569 2.12624,2.22052 2.36022,2.38624 3.76433,2.66621 6.24344,1.24489 6.73696,1.48278 7.69467,3.70903 0.4996,1.16134 0.54928,1.76516 0.52574,6.39011 -0.0243,4.78238 -0.25267,6.82737 -0.76233,6.82737 -0.33337,0 -0.57226,0.76857 -0.82238,2.64584 -0.12603,0.94588 -0.30585,2.04721 -0.39958,2.44739 l -0.17044,0.72761 h 3.96652 c 2.18159,0 4.3386,0.0744 4.79335,0.16536 l 0.82682,0.16537 v 2.05865 2.05866 l -1.71438,0.80225 c -0.94291,0.44124 -2.25981,1.17752 -2.92643,1.63617 l -1.21205,0.83391 0.0822,1.99536 0.0822,1.99536 -2.11347,0.90729 c -1.16241,0.49901 -2.29671,1.07312 -2.52068,1.27581 -0.56495,0.51127 -1.26468,2.85561 -1.42997,4.79087 -0.0761,0.89068 -0.54629,2.74647 -1.04493,4.12396 l -0.9066,2.50454 0.17137,4.58554 0.17136,4.58554 -1.71979,1.09352 c -0.94588,0.60144 -3.32713,2.05382 -5.29166,3.22752 -8.14672,4.8672 -20.73388,12.3186 -23.94479,14.17493 -8.85647,5.12022 -18.36823,10.71915 -23.97662,14.11343 -3.82362,2.31411 -5.63552,3.30195 -5.97691,3.25856 -0.11493,-0.0146 -1.64027,-0.82253 -3.38962,-1.79539 z m 7.31848,-5.62342 c 8.12052,-4.94734 20.93443,-12.66103 23.64342,-14.23283 5.40946,-3.13866 14.58684,-8.90619 14.85051,-9.33281 0.26149,-0.42311 -0.8181,0.002 -2.62751,1.03554 -0.90182,0.51493 -3.82877,2.12468 -6.50434,3.57721 -7.95761,4.3201 -18.22638,10.25799 -28.43991,16.44533 -2.31023,1.39953 -4.30655,2.5446 -4.43627,2.5446 -0.12973,0 -1.09704,-0.51934 -2.14959,-1.15408 -5.49942,-3.31643 -22.101895,-12.73113 -24.39584,-13.83404 -5.70235,-2.74165 -0.834247,0.9964 7.990768,6.13585 1.488611,0.86692 6.191582,3.67682 10.451042,6.2442 4.25946,2.56739 7.82056,4.68075 7.91355,4.69636 0.093,0.0156 1.75987,-0.94079 3.70417,-2.12533 z m -0.96283,-4.45661 c 0.58208,-0.39328 4.8088,-2.95218 9.3927,-5.68643 4.58391,-2.73425 10.06079,-6.06605 12.17084,-7.404 2.11005,-1.33794 4.90802,-3.04184 6.21771,-3.78644 1.30968,-0.7446 2.61937,-1.54529 2.91041,-1.77931 0.51625,-0.4151 0.51303,-0.42115 -0.13229,-0.24764 -1.37901,0.37079 -7.13834,3.22111 -10.23767,5.06668 -1.77441,1.05661 -4.57238,2.65138 -6.21771,3.54391 -1.64532,0.89254 -3.94399,2.18592 -5.10816,2.87418 -1.16417,0.68826 -3.06917,1.76846 -4.23333,2.40044 -1.16417,0.63198 -2.89058,1.64545 -3.83646,2.25215 -3.31665,2.12735 -3.30442,2.1241 -4.86186,1.29195 -1.56284,-0.83503 -3.84182,-2.16472 -6.11835,-3.5698 -1.45338,-0.89702 -4.79306,-2.68401 -10.742477,-5.74806 -1.251699,-0.64464 -2.501855,-1.12638 -2.778125,-1.07051 -0.681041,0.13771 1.081911,1.41555 5.662552,4.10439 4.14685,2.43421 12.37804,7.39613 14.07576,8.48515 1.33244,0.8547 1.55965,0.81167 3.83646,-0.72666 z m -12.78159,-16.40247 c 3.28176,-1.01364 6.07016,-3.70412 6.96627,-6.72165 0.21667,-0.72962 0.39136,-2.36305 0.39136,-3.65943 0,-4.90775 -1.87072,-7.95264 -6.0136,-9.7881 -2.73354,-1.21108 -6.65039,-0.52499 -8.033694,1.40721 -0.570033,0.79622 -1.563119,2.74209 -1.563119,3.06281 0,0.0682 0.496568,-0.30103 1.103485,-0.82053 2.218808,-1.89922 5.743688,-2.55056 8.074988,-1.49214 1.6405,0.7448 3.41921,2.50874 3.97063,3.93768 0.3343,0.86627 0.47571,1.94807 0.47283,3.61714 -0.005,3.05048 -0.65417,4.61974 -2.67354,6.46534 -1.76673,1.61469 -3.52412,2.25655 -5.65045,2.06374 -2.710542,-0.24579 -4.535225,-1.7102 -5.988226,-4.80591 -0.58815,-1.25309 -0.881349,-1.66451 -0.887714,-1.24565 -0.0052,0.34399 -0.259727,1.07065 -0.565555,1.6148 -0.525796,0.93552 -0.532725,1.03447 -0.127344,1.81839 1.077464,2.08358 2.976768,3.61081 5.622229,4.52084 1.95253,0.67166 2.79513,0.67603 4.90145,0.0255 z m -10.437356,-3.00543 c -0.617495,-0.92211 -1.257583,-1.90437 -1.422417,-2.18282 -0.634172,-1.07126 -0.587121,-0.13457 0.0583,1.16062 0.562591,1.12897 1.944989,2.69875 2.376607,2.69875 0.06063,0 -0.394992,-0.75445 -1.012488,-1.67655 z m -1.994048,-0.96637 c -1.001334,-1.61784 -1.709717,-2.20632 -0.997156,-0.82838 0.383942,0.74246 1.685868,2.41297 1.880572,2.41297 0.05354,0 -0.344001,-0.71307 -0.883416,-1.58459 z m -1.548005,-0.20135 c -1.024339,-1.39901 -1.152541,-1.53668 -1.152541,-1.23768 0,0.27296 1.537988,2.22987 1.75252,2.22987 0.06957,0 -0.200419,-0.44649 -0.599979,-0.99219 z m 11.930869,-0.42185 c 0.37121,-0.48668 0.67492,-1.00758 0.67492,-1.15755 0,-0.50499 1.59322,-0.63549 2.05997,-0.16874 0.50706,0.50705 0.81133,0.0235 0.34146,-0.54265 -0.22066,-0.26588 -0.16317,-0.66098 0.22944,-1.57691 0.4673,-1.09017 0.65483,-1.25717 1.7366,-1.5465 1.06176,-0.28398 1.203,-0.40511 1.1346,-0.97308 -0.0628,-0.52155 -0.30152,-0.70468 -1.21768,-0.93411 -0.92312,-0.23118 -1.25077,-0.48533 -1.72508,-1.33814 -0.43113,-0.77518 -0.88103,-1.16191 -1.70635,-1.46678 -0.83495,-0.30843 -1.04438,-0.4905 -0.82106,-0.71382 0.16992,-0.16992 0.22576,-0.59469 0.1289,-0.9806 -0.13576,-0.54091 -0.33297,-0.68083 -0.95959,-0.68083 -0.74011,0 -0.78871,0.0634 -0.78871,1.02965 0,0.87828 -0.0975,1.05411 -0.66302,1.19605 -0.4017,0.10083 -1.00131,0.6838 -1.52135,1.47914 -0.755205,1.155 -0.969601,1.31379 -1.784377,1.32154 -1.282489,0.0122 -1.695596,0.32774 -1.49185,1.13953 0.132064,0.52618 0.386998,0.70358 1.211204,0.84283 1.158606,0.19575 1.397491,0.41168 1.808423,1.63466 0.23914,0.71169 0.205,0.90755 -0.22619,1.29777 -0.27931,0.25278 -0.507837,0.5602 -0.507837,0.68317 0,0.38473 1.331857,0.24356 1.485757,-0.1575 0.11526,-0.30038 0.27929,-0.32044 0.77465,-0.0947 0.49844,0.2271 0.57594,0.38442 0.37464,0.76055 -0.13959,0.26082 -0.2538,0.7797 -0.2538,1.15307 0,0.98699 0.87715,0.88109 1.70633,-0.20602 z m -1.60049,-3.71888 c -0.7359,-0.7359 -0.89959,-1.10068 -0.89959,-2.00473 0,-1.89339 1.81167,-3.15849 3.56151,-2.48701 0.43008,0.16503 1.46558,1.92894 1.46558,2.49652 0,0.71426 -0.92431,2.15497 -1.61004,2.50958 -1.09892,0.56828 -1.52108,0.48202 -2.51746,-0.51436 z m 2.49655,-1.60091 c 0.15199,-1.33557 -1.31158,-2.00338 -1.84153,-0.84027 -0.42388,0.93031 0.11494,1.81018 1.04288,1.70297 0.56605,-0.0654 0.7278,-0.24012 0.79865,-0.8627 z m -19.954234,3.66281 c 0.363584,-0.13952 0.418514,-0.90352 0.418514,-5.82083 v -5.66024 h -5.647534 c -5.441795,0 -5.665896,0.0207 -6.151562,0.56755 -0.277215,0.31215 -1.080266,1.02652 -1.784558,1.5875 -1.15419,0.91932 -1.432047,1.01995 -2.816257,1.01995 -2.123606,0 -14.804723,-1.94778 -15.659519,-2.40525 -0.267376,-0.1431 -1.156898,-1.21742 -1.976715,-2.38739 -1.484811,-2.11898 -2.017151,-2.51909 -3.733124,-2.80582 -0.788057,-0.13169 -0.859895,-0.0857 -0.859895,0.55012 0,0.56121 0.265978,0.84393 1.391659,1.47922 0.987005,0.55703 1.686697,1.23086 2.406329,2.31737 0.937954,1.41613 0.987149,1.58171 0.650677,2.18993 -0.580624,1.04955 -1.552332,1.24582 -2.841405,0.57392 -0.601914,-0.31374 -1.156195,-0.57043 -1.231737,-0.57043 -0.07554,0 -0.10164,0.67249 -0.058,1.49441 0.06585,1.24015 0.191892,1.57575 0.740808,1.97244 1.332755,0.96315 1.885975,0.89672 3.586047,-0.43063 2.629262,-2.05283 2.582887,-2.04094 5.717441,-1.46558 1.504279,0.27612 4.63055,0.81624 6.947269,1.20028 2.316718,0.38403 4.459843,0.8279 4.762499,0.98636 0.302657,0.15847 1.681378,1.38565 3.063826,2.72707 1.382448,1.34143 2.751667,2.57072 3.042708,2.73176 0.560595,0.31019 9.274956,0.439 10.032527,0.14829 z m -12.046898,-3.74201 c -1.345263,-1.12778 -2.500153,-2.21755 -2.566422,-2.42171 -0.06627,-0.20416 1.065571,0.59951 2.515199,1.78594 1.449629,1.18642 2.782335,2.15713 2.961569,2.15713 0.179234,0 0.252295,0.11906 0.162359,0.26458 -0.290536,0.4701 -0.587552,0.29746 -3.072705,-1.78594 z m 7.773783,1.14811 c 0.252063,-0.25207 0.458296,-0.68792 0.458296,-0.96857 0,-0.47258 -0.211791,-0.51026 -2.867583,-0.51026 h -2.867583 l -1.522527,-1.38907 -1.522528,-1.38906 1.453573,-1.24947 c 1.596913,-1.37268 1.731519,-1.40877 6.202169,-1.66315 l 2.711979,-0.15431 -0.0017,2.06263 c -0.0015,1.81002 -0.108431,2.2711 -0.873266,3.76483 -0.479368,0.93621 -1.042029,1.75902 -1.250358,1.82846 -0.267442,0.0891 -0.24407,-0.008 0.07952,-0.33203 z m 1.011613,-4.15468 c 0.387192,-0.61139 0.269621,-1.44906 -0.272205,-1.9394 -0.575438,-0.52077 -1.672656,-0.42817 -4.085745,0.34482 -1.031093,0.33029 -1.374647,0.57395 -1.438064,1.01993 -0.06142,0.43193 0.07769,0.62181 0.529167,0.72233 2.114699,0.47082 4.925055,0.39202 5.266847,-0.14768 z m -30.715815,-0.58194 c 0,-0.0455 0.386953,-0.43249 0.859895,-0.8599 l 0.859896,-0.77711 -0.777105,0.8599 c -0.724371,0.80154 -0.942686,0.98151 -0.942686,0.77711 z m 20.492758,5.88181 c -1.290276,-1.33254 -2.20721,-1.83027 -3.371734,-1.83027 -0.493306,0 -2.374453,-0.28935 -4.180327,-0.643 -1.805873,-0.35364 -4.938519,-0.95843 -6.961435,-1.34396 l -3.678029,-0.70098 -0.783394,0.7834 -0.783393,0.78339 1.418714,0.25786 c 0.780293,0.14183 3.204652,0.63298 5.387464,1.09145 3.311687,0.69558 12.882264,2.54085 13.745884,2.6503 0.138674,0.0176 -0.218514,-0.45411 -0.79375,-1.04819 z m 20.897737,0.32216 2.629039,-0.43264 0.598849,-3.88243 c 0.758775,-4.91924 1.198754,-6.4143 2.452237,-8.33279 1.24995,-1.91308 1.883515,-2.49611 3.729381,-3.43188 1.88116,-0.95368 4.80827,-1.02896 6.4841,-0.16677 1.18008,0.60715 3.55043,2.98707 4.17071,4.18755 0.62217,1.20415 1.48477,3.9952 1.80747,5.84831 0.19507,1.12017 0.41479,1.67697 0.66175,1.67697 0.27761,0 0.36857,-0.41193 0.36512,-1.65365 -0.0148,-5.32211 -3.16976,-11.36676 -6.98258,-13.37801 -1.2046,-0.63542 -1.62726,-0.71011 -3.99303,-0.70556 -2.2787,0.004 -2.87978,0.10456 -4.331766,0.72198 -2.106467,0.89573 -3.778363,2.25002 -4.941611,4.00288 -1.054773,1.5894 -1.780039,3.76303 -1.459363,4.37373 0.12536,0.23874 0.04016,2.00406 -0.196845,4.07866 -0.327148,2.86363 -0.349282,3.76756 -0.101955,4.16359 0.173753,0.27823 0.315913,0.62654 0.315913,0.77404 0,0.31538 -0.709152,0.36461 -0.837847,0.0582 -0.167243,-0.39825 -2.735563,-1.33192 -3.395486,-1.23437 -2.628343,0.3885 -2.645833,0.39521 -2.645833,1.0154 0,0.33295 0.06458,0.66995 0.143513,0.74888 0.07893,0.0789 1.001666,-0.0202 2.050521,-0.22017 1.048854,-0.20003 2.085601,-0.36201 2.303883,-0.35995 0.917439,0.009 -0.443477,0.50851 -2.243138,0.82391 -1.968481,0.34499 -2.24426,0.52878 -2.250727,1.49997 -0.0039,0.58501 0.05455,0.60168 1.517302,0.43264 0.836745,-0.0967 2.704422,-0.37049 4.150393,-0.60845 z m 31.352556,-3.59873 c 0.80991,-0.21337 3.61569,-0.86337 6.23507,-1.44443 2.61937,-0.58105 7.67953,-1.76149 11.24479,-2.62319 3.56526,-0.86169 7.67291,-1.8282 9.12812,-2.1478 1.45521,-0.31959 2.8353,-0.63348 3.06687,-0.69752 0.23157,-0.064 1.3592,-1.57293 2.50584,-3.35308 2.0963,-3.25449 3.89612,-5.89825 5.94951,-8.73927 0.60975,-0.84363 1.04795,-1.59456 0.97379,-1.66873 -0.0742,-0.0742 -0.53465,-0.0312 -1.0233,0.0954 -1.04254,0.27015 -1.87424,1.30193 -5.59719,6.9437 -1.3924,2.11005 -2.6887,4.0447 -2.88066,4.29922 -0.21709,0.28783 -1.09915,0.60519 -2.3334,0.83955 -1.9895,0.37778 -3.5272,0.74048 -16.821,3.96759 -3.94004,0.95646 -7.72027,1.8153 -8.40052,1.90854 l -1.23681,0.16952 v -2.84977 -2.84977 l 0.52421,0.66643 c 0.28832,0.36654 1.02384,0.86634 1.6345,1.11068 1.01945,0.4079 1.2417,0.41071 2.71693,0.0342 1.96406,-0.50121 13.21257,-3.15559 15.25765,-3.60045 1.43971,-0.31317 1.51783,-0.3771 2.85897,-2.33961 0.75834,-1.1097 2.08229,-2.97013 2.9421,-4.1343 1.24327,-1.68336 1.47013,-2.13224 1.10822,-2.19275 -0.71608,-0.11972 -26.83569,5.07648 -29.02696,5.77459 l -0.79375,0.25288 0.007,4.82951 c 0.009,6.20056 0.0819,8.13681 0.3064,8.13681 0.0996,0 0.84374,-0.17458 1.65365,-0.38796 z m 4.25069,-10.71255 c 0,-1.00344 0.0407,-1.05309 0.99219,-1.21103 0.5457,-0.0906 1.33737,-0.27457 1.75927,-0.40887 1.1566,-0.36816 1.21729,-0.32781 1.21729,0.80912 0,0.93566 -0.0813,1.07034 -0.7276,1.2059 -0.40019,0.0839 -1.22681,0.26479 -1.83696,0.40191 -0.61014,0.13713 -1.17569,0.24932 -1.25677,0.24932 -0.0811,0 -0.14742,-0.47086 -0.14742,-1.04635 z m -20.79809,7.24241 c 0.24837,-0.64724 0.19452,-0.73276 -0.23628,-0.37523 -0.43984,0.36503 -0.52658,0.79375 -0.1606,0.79375 0.12995,0 0.30855,-0.18833 0.39688,-0.41852 z m -5.42589,-0.39392 c -0.42459,-0.26241 -0.61786,-0.12321 -0.37485,0.26999 0.0974,0.15757 0.30061,0.21014 0.45162,0.11682 0.17776,-0.10987 0.1507,-0.24622 -0.0768,-0.38681 z m -11.260633,-0.53127 c 1.110071,-0.18753 1.862788,-0.45308 1.953361,-0.68911 0.301195,-0.7849 -0.329525,-0.90733 -2.460647,-0.47764 -2.923041,0.58936 -3.018511,0.62842 -3.018511,1.23482 0,0.46488 0.120695,0.51946 0.859896,0.38891 0.472943,-0.0835 1.672598,-0.28917 2.665901,-0.45698 z m 82.838123,-0.43534 c 3.71723,-2.61257 4.75678,-9.51622 2.0417,-13.55888 -3.23267,-4.81333 -8.87556,-1.92786 -10.1117,5.17056 -0.40576,2.33004 -0.17374,4.33769 0.69581,6.0207 1.3729,2.65726 2.5496,3.44037 4.86875,3.24023 1.01328,-0.0874 1.75668,-0.34636 2.50544,-0.87261 z m -4.37011,-1.4621 c -0.55488,-0.36742 -1.20177,-1.20153 -1.68989,-2.17896 -0.68473,-1.37109 -0.78686,-1.85529 -0.76094,-3.60758 0.0581,-3.92671 2.25975,-7.11391 4.9121,-7.1109 3.84915,0.004 5.52148,6.66912 2.82162,11.24504 -0.65625,1.11226 -2.46792,2.24772 -3.58635,2.24772 -0.43863,0 -1.20208,-0.26789 -1.69654,-0.59532 z m 1.44601,-1.9898 c 0.32453,-1.13157 0.90144,-1.27632 1.77006,-0.44412 0.8823,0.84529 1.20942,0.49485 0.77285,-0.82795 -0.37967,-1.15044 0.0368,-2.38432 0.8952,-2.65197 1.16767,-0.36409 0.99584,-1.42834 -0.23061,-1.42834 -0.73334,0 -1.00453,-0.84794 -0.76009,-2.3766 0.12921,-0.80805 0.0825,-1.06385 -0.19457,-1.0666 -0.2005,-0.002 -0.62587,-0.0737 -0.94528,-0.15934 -0.48762,-0.13076 -0.61759,-0.0135 -0.81057,0.73122 -0.1611,0.62172 -0.38304,0.88694 -0.74218,0.88694 -0.35338,0 -0.67653,0.37168 -1.04151,1.19791 -0.38134,0.86326 -0.65852,1.17198 -0.99219,1.10508 -0.67963,-0.13626 -0.61033,1.1357 0.0885,1.62521 0.6726,0.4711 1.31703,2.20401 1.12178,3.01652 -0.35323,1.46998 0.65349,1.83933 1.06857,0.39204 z m -0.32669,-2.53333 c -0.80021,-0.96419 -0.44382,-3.32744 0.55578,-3.68544 0.90123,-0.32277 2.02784,1.48676 1.62618,2.61194 -0.45651,1.27886 -1.56068,1.8221 -2.18196,1.0735 z m 1.15665,-1.58433 c 0,-0.68965 -0.51882,-0.64637 -0.61757,0.0515 -0.0606,0.42834 0.0226,0.58778 0.26458,0.50711 0.19415,-0.0647 0.35299,-0.3161 0.35299,-0.55863 z m 0.1323,-3.61597 c 0,-0.14552 0.11203,-0.26459 0.24896,-0.26459 0.13694,0 0.32256,0.11907 0.41249,0.26459 0.0899,0.14552 -0.0221,0.26458 -0.24896,0.26458 -0.22687,0 -0.41249,-0.11906 -0.41249,-0.26458 z m -41.23673,11.40153 c 0.92484,-0.27759 2.51496,-0.701 3.5336,-0.94091 1.01865,-0.2399 3.2213,-0.7717 4.89479,-1.18176 1.67349,-0.41007 4.3524,-1.01778 5.95313,-1.35047 1.60073,-0.33269 3.04956,-0.71141 3.21963,-0.8416 0.17007,-0.13019 0.78306,-1.03384 1.36221,-2.00811 0.57915,-0.97426 2.07711,-3.16695 3.3288,-4.87263 2.26131,-3.08147 2.90042,-4.32418 1.59248,-3.09644 -0.86481,0.81177 -4.17949,5.4071 -5.41455,7.50649 -0.51618,0.87742 -1.23055,1.73988 -1.5875,1.91658 -0.35694,0.1767 -2.07774,0.63742 -3.82399,1.02383 -1.74625,0.38641 -5.08301,1.16685 -7.41503,1.73431 -6.78891,1.65198 -7.92677,1.82712 -9.39534,1.44618 -1.12258,-0.29119 -1.24579,-0.28122 -1.11448,0.0902 0.0812,0.22967 0.26278,0.56642 0.40353,0.74832 0.37694,0.48714 2.5412,0.40276 4.46272,-0.17399 z m 36.14486,-0.79901 c -0.64469,-0.71704 -1.63178,-2.23509 -2.19354,-3.37343 -0.6017,-1.21929 -1.06062,-1.88765 -1.11688,-1.62662 -0.29177,1.35368 1.47474,4.5999 3.1064,5.70846 1.39561,0.94819 1.46786,0.69729 0.20402,-0.70841 z m -4.44173,-0.6145 c -0.58234,-0.76399 -1.32465,-2.10344 -1.64958,-2.97657 l -0.59078,-1.5875 -0.0813,1.27255 c -0.1002,1.5686 0.45713,2.61512 2.03265,3.81681 0.62287,0.47507 1.18093,0.86377 1.24014,0.86377 0.0592,0 -0.3688,-0.62508 -0.95114,-1.38906 z m 2.34378,0.31422 c -0.56236,-0.59116 -1.49047,-1.99014 -2.06248,-3.10885 -0.61454,-1.2019 -1.04541,-1.80777 -1.05323,-1.48097 -0.0224,0.93539 1.53606,3.71648 2.64297,4.7165 1.42327,1.28584 1.73656,1.20188 0.47274,-0.12668 z m -97.377393,0.0239 c -0.283569,-0.45406 -0.210852,-0.64046 0.560187,-1.43597 l 0.886057,-0.91418 0.631296,0.75025 c 0.347213,0.41264 0.803369,1.08192 1.013681,1.4873 0.315532,0.60819 0.412035,0.65977 0.551992,0.29505 0.111438,-0.2904 -0.156887,-0.82343 -0.78236,-1.55415 -0.523583,-0.61169 -0.948013,-1.18003 -0.943179,-1.26298 0.01938,-0.33252 1.464004,-2.23109 1.711002,-2.24866 0.145521,-0.0103 0.621771,0.54027 1.058333,1.22359 0.875043,1.36965 1.190625,1.55821 1.190625,0.7114 0,-0.31736 -0.468126,-0.98764 -1.081085,-1.54794 l -1.081085,-0.98821 0.916945,-1.0009 c 1.012715,-1.10543 1.384498,-1.06107 1.736416,0.20721 0.199657,0.71954 0.265914,0.77282 0.440689,0.35435 0.131396,-0.3146 0.03798,-0.77644 -0.258607,-1.27852 -0.451302,-0.764 -0.448664,-0.79698 0.09418,-1.1772 0.597671,-0.41862 1.349216,-1.68861 1.349216,-2.27996 0,-0.19782 -0.53025,-1.00741 -1.178332,-1.79907 -0.648083,-0.79167 -1.47407,-1.8044 -1.835527,-2.25051 -0.361457,-0.44611 -0.802819,-1.13072 -0.980804,-1.52135 -0.177985,-0.39064 -0.483092,-0.71025 -0.678015,-0.71025 -0.43228,0 -0.435327,0.0621 -0.04509,0.91857 0.274474,0.60241 0.22419,0.76774 -0.446376,1.46766 -0.415633,0.43382 -0.849425,0.78877 -0.963983,0.78877 -0.114559,0 -0.403532,-0.38695 -0.642163,-0.85989 -0.479223,-0.94977 -1.669617,-2.31511 -2.018472,-2.31511 -0.122699,0 0.316295,0.78775 0.975543,1.75056 0.659247,0.9628 1.198632,1.89617 1.198632,2.07415 0,0.17798 -0.412342,0.69882 -0.916316,1.15743 l -0.916315,0.83383 -0.671185,-1.14529 c -0.836011,-1.42655 -0.837232,-1.66122 -0.0097,-1.86891 0.363802,-0.0913 0.661458,-0.28281 0.661458,-0.42556 0,-0.391 -0.561948,-0.31189 -1.073585,0.15114 -0.414795,0.37538 -0.502445,0.34882 -1.019926,-0.30905 l -0.566133,-0.71972 0.73451,-0.78894 0.734509,-0.78894 -0.855879,0.4912 c -0.843354,0.48401 -0.873467,0.48266 -2.057599,-0.0926 -0.660945,-0.32111 -1.25207,-0.58384 -1.313611,-0.58384 -0.06154,0 0.656019,0.74926 1.594578,1.66503 1.022589,0.99775 1.70647,1.88645 1.70647,2.21755 0,0.64562 -1.64312,2.0066 -2.163825,1.79227 -0.192344,-0.0792 -0.676939,-0.57388 -1.076877,-1.09935 l -0.727161,-0.95541 0.925598,-0.62896 c 0.509079,-0.34593 0.925598,-0.74373 0.925598,-0.884 0,-0.4086 -0.341028,-0.29747 -1.190625,0.38796 l -0.79375,0.64037 -1.463639,-1.60902 c -0.805001,-0.88496 -1.610745,-1.55998 -1.79054,-1.50005 -0.191173,0.0637 0.334138,0.79295 1.265201,1.75633 0.875657,0.90605 1.592103,1.76458 1.592103,1.90786 0,0.14328 0.535782,0.86377 1.190625,1.60109 0.654844,0.73732 1.190625,1.45025 1.190625,1.5843 0,0.13405 -0.321408,0.56513 -0.714239,0.95797 l -0.71424,0.71424 -1.005552,-1.13312 c -1.112593,-1.25374 -1.185036,-1.52037 -0.617092,-2.27126 0.489152,-0.64672 0.520446,-1.07083 0.05022,-0.68058 -0.195291,0.16208 -0.452504,0.20642 -0.571586,0.0986 -0.119082,-0.10788 -0.135951,-0.0555 -0.03749,0.1163 0.315143,0.55001 -0.372834,0.68288 -0.929117,0.17945 -0.947473,-0.85745 -1.145516,-1.46347 -0.606948,-1.85728 0.262463,-0.19192 0.399477,-0.42667 0.304477,-0.52167 -0.095,-0.095 -0.367084,-0.0114 -0.604629,0.18572 -0.369815,0.30692 -0.484835,0.28605 -0.800144,-0.14516 -0.202534,-0.27698 -0.368244,-0.65638 -0.368244,-0.84311 0,-0.18673 -0.386291,-0.53927 -0.858425,-0.78342 -0.472135,-0.24415 -1.485961,-0.86057 -2.252948,-1.36982 -0.766987,-0.50925 -1.456578,-0.86386 -1.532425,-0.78801 -0.07585,0.0759 0.580792,0.76052 1.459197,1.5215 0.878406,0.76097 1.597101,1.49087 1.597101,1.62199 0,0.13112 -0.208359,0.45038 -0.463021,0.70947 -0.254661,0.25908 -0.628588,0.78855 -0.830949,1.17659 -0.20236,0.38804 -0.548291,0.77474 -0.768735,0.85933 -0.471665,0.181 -1.441662,-0.66603 -2.237671,-1.954 -0.329289,-0.5328 -0.61015,-0.77036 -0.676268,-0.57201 -0.0622,0.18659 0.260797,0.86968 0.717761,1.51798 0.456965,0.6483 0.75032,1.30902 0.651901,1.46827 -0.102345,0.1656 -0.0577,0.2146 0.104293,0.11449 0.253362,-0.15659 2.179773,1.79484 2.179773,2.20808 0,0.0921 -0.342939,0.49601 -0.762087,0.89758 l -0.762086,0.73012 -0.529937,-0.74677 c -0.291465,-0.41072 -0.588001,-0.92536 -0.658969,-1.14364 -0.07097,-0.21828 -0.08866,-0.0736 -0.03933,0.32163 0.04934,0.39517 0.547189,1.46673 1.10634,2.38125 0.55915,0.91451 1.188024,1.9604 1.397498,2.3242 0.209473,0.3638 0.527379,0.75538 0.706458,0.87017 0.179079,0.1148 0.636877,0.73987 1.017329,1.38907 0.42856,0.73128 0.880329,1.18035 1.187452,1.18035 0.339168,0 0.445994,-0.12959 0.33826,-0.41034 -0.09022,-0.2351 0.09545,-0.67956 0.434779,-1.04075 l 0.59224,-0.63041 0.897078,0.9746 c 0.493392,0.53603 0.960855,1.17196 1.038805,1.41318 0.247897,0.76712 0.844255,0.77003 1.01524,0.005 0.08704,-0.38946 0.346011,-0.94623 0.575495,-1.23728 0.413599,-0.52454 0.422014,-0.52338 0.963252,0.1323 0.300304,0.3638 0.658091,0.97933 0.795082,1.36785 0.312786,0.88708 1.143075,1.30214 0.923251,0.46153 -0.104529,-0.39971 0.100469,-0.80656 0.717106,-1.4232 l 0.863478,-0.86348 0.706215,1.11629 c 0.388418,0.61396 0.706215,1.30343 0.706215,1.53216 0,0.35949 0.34213,0.56857 1.126721,0.68857 0.110374,0.0169 0.05404,-0.20412 -0.125189,-0.49111 z m -1.364302,-2.00611 c -0.838167,-1.32486 -0.839355,-1.37406 -0.0563,-2.33145 l 0.620231,-0.75832 0.950595,1.0229 c 0.522827,0.5626 0.953817,1.14983 0.957754,1.30495 0.0039,0.15513 -0.394212,0.6374 -0.884777,1.07171 l -0.891936,0.78966 z m -3.983393,-0.81524 -0.774288,-1.22554 0.708142,-0.51585 c 0.389478,-0.28371 0.708142,-0.63911 0.708142,-0.78976 0,-0.15066 -0.403835,0.0341 -0.89741,0.41057 l -0.897411,0.68449 -0.31537,-0.76138 c -0.23783,-0.57417 -0.241281,-0.91364 -0.01403,-1.38068 0.28747,-0.59083 0.282365,-0.59564 -0.11094,-0.10463 -0.399219,0.49839 -0.449953,0.47592 -1.602096,-0.70947 -0.654401,-0.67329 -1.189376,-1.32162 -1.188832,-1.44073 5.44e-4,-0.11912 0.254387,-0.63225 0.564096,-1.1403 l 0.563108,-0.92373 1.166555,1.3206 c 0.719361,0.81436 1.121138,1.49824 1.048079,1.78399 -0.06516,0.25486 -0.02212,0.40383 0.09565,0.33105 0.206415,-0.12757 0.552823,0.24736 2.530407,2.73878 l 0.914382,1.15197 -0.729654,0.87945 c -0.40131,0.4837 -0.789185,0.88783 -0.861946,0.89808 -0.07276,0.0102 -0.480721,-0.53286 -0.906579,-1.20691 z m -3.482606,-0.2402 -0.985029,-1.20209 0.570441,-0.77157 c 0.795982,-1.07662 0.711275,-1.2915 -0.174561,-0.44282 l -0.745002,0.71376 -0.538554,-0.59811 c -0.296204,-0.32896 -0.621248,-0.74439 -0.722318,-0.92317 -0.1783,-0.31539 0.81104,-1.9239 1.18333,-1.9239 0.22133,0 2.94331,3.33803 3.361113,4.12181 0.233153,0.43739 0.188711,0.72168 -0.217154,1.38907 -0.280666,0.46152 -0.563613,0.83912 -0.628769,0.83912 -0.06516,0 -0.56173,-0.54094 -1.103497,-1.2021 z m -3.926491,-0.66918 c -0.754036,-1.13943 -0.678239,-1.53209 0.407958,-2.11341 0.376366,-0.20142 0.610255,-0.068 1.172235,0.66882 l 0.702058,0.92044 -0.621308,0.7862 c -0.341719,0.43241 -0.694783,0.79279 -0.784586,0.80084 -0.0898,0.008 -0.484163,-0.47025 -0.876357,-1.06289 z m 13.707054,-0.31153 c -1.299431,-1.48279 -1.298455,-1.47813 -0.487421,-2.32467 0.413213,-0.4313 0.859845,-0.78418 0.992516,-0.78418 0.132671,0 0.582757,0.36561 1.000191,0.81248 l 0.75897,0.81248 -0.687976,1.0396 c -0.378387,0.57178 -0.770463,1.0396 -0.87128,1.0396 -0.100817,0 -0.418067,-0.26789 -0.705,-0.59531 z m -4.151251,-0.67594 c -0.861929,-0.89966 -0.865044,-1.03043 -0.04835,-2.0299 l 0.643583,-0.78761 0.919383,0.8911 0.919382,0.8911 -0.677842,0.8887 c -0.372813,0.48878 -0.760497,0.8887 -0.861521,0.8887 -0.101023,0 -0.503611,-0.33394 -0.894638,-0.74209 z m -11.360439,-1.55912 c -0.887136,-1.16927 -0.898036,-1.58716 -0.06605,-2.53258 l 0.644827,-0.73274 0.927153,0.99732 c 0.509934,0.54853 0.930375,1.18601 0.934312,1.41662 0.0057,0.33444 -1.371111,1.8585 -1.644196,1.82003 -0.03764,-0.005 -0.395858,-0.4412 -0.796041,-0.96865 z m 13.192498,-0.77335 -0.727606,-0.91188 0.745939,-0.8981 c 0.410267,-0.49395 0.865002,-0.90521 1.010523,-0.91392 0.277386,-0.0166 1.455208,1.65007 1.455208,2.05918 0,0.13029 -0.395203,0.53832 -0.878228,0.90674 l -0.878229,0.66986 z m 3.988774,0.21581 c -0.896329,-0.93557 -0.889457,-1.10457 0.08279,-2.03605 l 0.79375,-0.76046 0.79375,0.76046 c 0.436563,0.41826 0.79375,0.89451 0.79375,1.05834 0,0.28854 -1.347055,1.71979 -1.618622,1.71979 -0.07395,0 -0.454391,-0.33394 -0.845418,-0.74208 z m -7.69728,-0.33463 c -0.709568,-0.84327 -0.690877,-1.03246 0.216321,-2.18949 0.364037,-0.46429 0.421897,-0.44495 1.187337,0.39687 1.005053,1.10536 1.011658,1.37402 0.0506,2.05836 l -0.769562,0.54797 z m -6.772013,-0.58287 c 0,-0.19695 -0.357187,-0.70029 -0.793749,-1.11855 -0.872959,-0.83634 -1.003202,-1.48116 -0.400245,-1.98157 0.562386,-0.46674 1.066411,-0.18425 1.88897,1.05872 l 0.719771,1.08765 -0.707373,0.65591 c -0.448006,0.41542 -0.707374,0.52462 -0.707374,0.29784 z m 8.807801,-1.07705 c -1.265931,-1.44907 -1.262237,-1.39274 -0.173412,-2.64442 l 1.012657,-1.16412 0.725366,0.95748 c 0.398952,0.52662 0.728679,1.06211 0.732727,1.19 0.004,0.12788 -0.399025,0.68233 -0.89572,1.23212 l -0.903081,0.9996 z m 7.742122,-0.26491 c -0.868292,-1.13839 -0.847452,-1.41545 0.199533,-2.65288 l 0.866584,-1.0242 0.849271,0.96727 c 0.4671,0.53199 0.848004,1.17148 0.846455,1.42108 -0.0026,0.41524 -1.563947,2.1736 -1.930088,2.1736 -0.08626,0 -0.460547,-0.39819 -0.831755,-0.88487 z m -3.768111,0.0278 c -1.132609,-1.24331 -1.140331,-1.58089 -0.05787,-2.52981 l 0.996284,-0.87338 0.712657,1.21606 c 0.391961,0.66883 0.667831,1.24044 0.613044,1.27025 -0.05479,0.0298 -0.464035,0.38287 -0.909439,0.78459 l -0.809826,0.7304 z m -11.969878,-1.18887 c -0.964954,-1.17065 -1.002046,-1.49503 -0.232584,-2.03398 0.318642,-0.22319 0.497966,-0.48718 0.398497,-0.58664 -0.09947,-0.0995 -0.415273,0.0313 -0.701787,0.29058 -1.096996,0.99277 -1.933936,-0.15418 -1.214066,-1.66376 l 0.459982,-0.96459 0.702033,0.86233 c 0.386118,0.47428 1.148517,1.37896 1.694221,2.01041 0.545703,0.63145 0.992187,1.23665 0.992187,1.34489 0,0.10824 -0.289474,0.54082 -0.643275,0.96129 l -0.643275,0.76449 z m -3.426285,-1.01681 -0.572132,-0.72735 0.601054,-0.68462 c 0.33058,-0.37654 0.609512,-0.71292 0.619849,-0.74751 0.01034,-0.0346 0.291779,0.30634 0.625427,0.75762 l 0.606632,0.82051 -0.654349,0.65435 -0.654349,0.65435 z m 17.230258,-0.57857 -0.857168,-1.23154 0.977333,-1.00088 0.977333,-1.00088 0.605416,0.56876 c 0.944878,0.88766 1.018949,1.4977 0.278762,2.29583 -0.358466,0.38652 -0.758125,0.9047 -0.888132,1.15151 -0.199396,0.37853 -0.370474,0.25607 -1.093544,-0.7828 z m -20.074592,10.70581 c -0.572903,-0.76352 -1.964475,-1.77285 -2.444254,-1.77285 -0.222934,0 -0.303245,0.35324 -0.248211,1.09173 0.07622,1.02273 0.156616,1.12158 1.271984,1.56386 0.985752,0.39088 1.252941,0.41225 1.552773,0.12417 0.305669,-0.29369 0.285037,-0.45072 -0.132292,-1.00691 z m 39.406625,0.88691 c 0.610143,-0.13786 1.567436,-0.32402 2.127318,-0.4137 0.997082,-0.1597 1.008192,-0.17385 0.541489,-0.68955 -0.374036,-0.4133 -0.692451,-0.49501 -1.480989,-0.38005 -3.284408,0.47886 -3.121176,0.42155 -3.121176,1.09575 0,0.71582 0.25462,0.76686 1.933358,0.38755 z m 70.520252,-0.47695 c -0.36871,-0.40018 -0.86723,-1.02199 -1.10783,-1.38179 -0.29586,-0.44243 -0.43745,-0.5198 -0.43745,-0.23902 0,0.22834 0.42245,0.85014 0.93877,1.38179 1.08665,1.11888 1.60562,1.3234 0.60651,0.23902 z m -41.43122,-1.30713 c 0.52325,-0.29838 0.14506,-0.87568 -0.57367,-0.87568 -1.12226,0 -1.60914,0.25236 -1.60914,0.83405 0,0.44806 0.12534,0.49023 0.99219,0.33381 0.5457,-0.0985 1.08148,-0.22995 1.19062,-0.29218 z m -33.07291,-0.79219 c 0.10914,-0.0631 0.199482,-4.12605 0.20076,-9.02879 0.0013,-4.90274 0.122021,-10.57429 0.268318,-12.60344 0.460957,-6.39351 2.423356,-14.38511 3.952953,-16.09787 l 0.759334,-0.85026 7.694994,-0.081 c 6.602361,-0.0695 7.694991,-0.13699 7.694991,-0.47505 0,-0.63623 -1.19134,-1.6442 -2.15755,-1.82546 -0.49157,-0.0922 -3.749321,-0.12988 -7.239456,-0.0837 -5.963865,0.0789 -6.411856,0.11936 -7.445168,0.67192 -0.604708,0.32336 -1.343991,0.89879 -1.642851,1.27873 -1.024588,1.30255 -2.388494,5.72695 -3.992086,12.95 -0.452299,2.03729 -0.928459,4.18042 -1.058133,4.7625 -0.909631,4.08319 -1.12133,4.62789 -2.134959,5.49328 -0.928063,0.79234 -1.106591,1.19474 -2.375601,5.35464 -0.754669,2.47385 -1.647782,5.39639 -1.984697,6.49453 -0.336914,1.09814 -0.69817,2.56744 -0.802792,3.2651 l -0.19022,1.26848 5.126862,-0.18943 c 2.819775,-0.10418 5.21616,-0.24105 5.325301,-0.30415 z m 4.239618,-0.47325 c 1.276764,-0.20929 2.426259,-0.44534 2.554435,-0.52456 0.128176,-0.0792 0.618173,-0.82644 1.088884,-1.66049 1.18528,-2.1002 3.676074,-4.60998 5.584712,-5.62727 0.941237,-0.50167 2.380091,-0.98447 3.492331,-1.17184 l 1.89158,-0.31864 0.0828,-8.84591 c 0.0456,-4.86525 0.003,-11.13786 -0.0951,-13.93913 l -0.1779,-5.09323 h -0.76484 -0.76485 v 5.60529 5.60529 l -1.559133,1.47231 c -2.408697,2.27457 -4.75726,4.99236 -6.073674,7.02857 -2.30238,3.56126 -3.923773,5.09092 -7.117709,6.71501 -1.098857,0.55875 -1.12448,0.60221 -1.12448,1.90715 0,1.14658 0.06546,1.31637 0.463021,1.201 0.254662,-0.0739 0.971283,-0.26572 1.592492,-0.42625 0.621208,-0.16053 1.685689,-0.5303 2.365512,-0.8217 1.319111,-0.56544 4.828286,-1.56376 5.496739,-1.56376 0.51036,0 -3.044188,4.284 -3.887052,4.68474 -0.333715,0.15866 -1.440191,0.49029 -2.458837,0.73696 -2.767427,0.67014 -3.571875,0.94342 -3.571875,1.21341 0,0.39211 0.849504,0.28718 3.210003,-0.39652 1.216392,-0.35231 2.267467,-0.58473 2.335722,-0.51647 0.372557,0.37255 -0.692459,1.08215 -2.912598,1.9406 l -2.500835,0.96699 -0.08136,1.1091 c -0.09419,1.28402 -0.261894,1.24288 2.931915,0.71935 z M 99.09815,135.62921 v -1.57462 l 1.24207,-0.42322 c 0.68314,-0.23277 1.32751,-0.33325 1.43193,-0.22331 0.10442,0.10995 0.2301,0.88988 0.27928,1.73317 0.0983,1.68458 0.23734,1.5496 -1.96109,1.90307 l -0.99219,0.15952 z m 52.15669,11.26324 c 0.96447,-1.48563 2.55276,-3.8116 3.52954,-5.16883 0.97678,-1.35723 1.71469,-2.52896 1.6398,-2.60385 -0.44181,-0.44181 -1.43804,0.7188 -4.22731,4.92485 -1.71887,2.59197 -3.19173,4.96702 -3.27303,5.27788 -0.30884,1.18101 0.60557,0.22774 2.331,-2.43005 z m 2.10248,-0.12146 c 1.05205,-1.56435 2.53046,-3.67771 3.28534,-4.69635 0.75489,-1.01865 1.58395,-2.17951 1.84235,-2.57969 0.45764,-0.70872 0.45595,-0.7276 -0.065,-0.7276 -0.60542,0 -1.33365,0.93905 -5.0109,6.46161 -1.34897,2.02592 -2.45268,3.84162 -2.45268,4.0349 0,0.81054 0.5941,0.19366 2.40084,-2.49287 z m -80.982086,2.07216 c 0,-0.13362 0.08182,-0.46104 0.18183,-0.7276 0.160063,-0.42664 0.128389,-0.44119 -0.264583,-0.12154 -0.488076,0.39702 -0.603803,1.09209 -0.18183,1.09209 0.145521,0 0.264583,-0.10933 0.264583,-0.24295 z m 91.631956,-4.57795 c 0.66782,-3.53266 1.81796,-5.23292 4.44712,-6.57421 1.33968,-0.68346 1.29872,-0.99917 -0.10148,-0.78204 -3.33131,0.5166 -5.04407,2.93022 -5.60369,7.89672 -0.16718,1.48361 -0.0642,1.89918 0.47083,1.89918 0.20139,0 0.50233,-0.93265 0.78722,-2.43965 z m -115.456852,2.10892 c -0.0068,-0.0364 -0.351419,-2.03068 -0.765779,-4.43177 -0.768871,-4.45539 -1.041795,-4.28337 -0.554386,0.34943 0.263554,2.50505 0.694764,4.14848 1.088498,4.14848 0.134235,0 0.238486,-0.0298 0.231667,-0.0661 z m 73.086932,-2.19829 c 12.00766,-2.45317 23.22993,-4.64712 27.73171,-5.42156 2.54661,-0.43809 5.7613,-1.02444 7.14375,-1.30301 3.86847,-0.77951 7.80464,-1.48577 14.02291,-2.5161 5.23354,-0.86717 14.46081,-2.52839 16.66875,-3.00093 l 0.92604,-0.19819 v -1.57758 -1.57757 l -2.38125,0.0804 c -3.26894,0.11036 -8.51692,0.8613 -24.47395,3.50199 -3.56526,0.59001 -8.38729,1.36715 -10.71563,1.72697 -2.32833,0.35983 -4.94771,0.76502 -5.82083,0.90043 -0.87313,0.1354 -2.30188,0.37049 -3.175,0.5224 -2.46483,0.42886 -2.56441,0.40087 -3.48002,-0.97801 -1.12366,-1.69221 -1.47357,-2.93063 -1.47357,-5.21536 0,-4.81127 2.50725,-8.04328 5.76544,-7.43204 1.22745,0.23027 2.63883,1.89698 3.17857,3.7536 0.68253,2.34782 0.41457,4.72654 -0.79282,7.03797 -0.53351,1.02136 -0.91773,1.90931 -0.85381,1.97322 0.20534,0.20535 1.48839,-1.33993 2.01975,-2.43254 0.28322,-0.58239 0.65012,-1.96766 0.81532,-3.07838 0.25628,-1.72315 0.23501,-2.24721 -0.14496,-3.57132 -1.01659,-3.54254 -2.91896,-5.30526 -5.46187,-5.06092 -1.71475,0.16477 -3.31001,1.26806 -4.12092,2.85006 -2.06607,4.03066 -1.8387,9.48753 0.48771,11.70539 0.57242,0.54571 0.94644,0.99467 0.83117,0.9977 -0.11526,0.003 -1.81692,0.24492 -3.78145,0.53754 -1.96453,0.29263 -4.58391,0.66395 -5.82083,0.82516 -2.51822,0.32821 -3.15941,0.61866 -6.30522,2.8562 -2.24269,1.59516 -3.22525,1.95025 -6.52707,2.35878 -1.29456,0.16018 -1.32464,0.18425 -1.40308,1.12296 -0.0763,0.91281 0.4261,1.81885 1.0085,1.81885 0.126,0 2.88569,-0.54275 6.13266,-1.2061 z m 4.22646,-3.33926 c 2.55946,-2.23188 2.52409,-2.2163 6.43962,-2.83706 2.03729,-0.32299 4.35111,-0.69907 5.14182,-0.83575 2.32961,-0.40267 2.44432,-0.37282 2.34943,0.6114 -0.0828,0.85862 -0.0861,0.8604 -2.19958,1.20158 -1.16417,0.18793 -4.14073,0.76987 -6.61458,1.2932 -2.47386,0.52332 -4.79558,1.00306 -5.15938,1.06607 l -0.66146,0.11457 z m 16.52057,-3.50246 c -0.078,-0.29811 -0.0479,-0.6359 0.0669,-0.75065 0.29664,-0.29664 4.41132,-1.04228 5.20002,-0.94231 l 0.65874,0.0835 -0.59497,0.72055 c -0.50488,0.61147 -0.94274,0.77434 -2.89195,1.07575 -2.24142,0.34659 -2.30042,0.34207 -2.43873,-0.18683 z m 8.06304,-1.36918 c 0.90778,-0.97051 1.14869,-1.0659 3.88433,-1.53799 3.00835,-0.51916 3.18437,-0.52582 2.76314,-0.10459 -0.17462,0.17462 -0.3175,0.5189 -0.3175,0.76506 0,0.24644 -0.27361,0.51624 -0.60885,0.60038 -0.59134,0.14842 -5.82081,0.96289 -6.1824,0.96289 -0.0991,0 0.10849,-0.30859 0.46128,-0.68575 z m 9.30644,-1.76165 c 0.22819,-0.34375 0.88471,-0.72183 1.55363,-0.89471 1.16263,-0.30049 8.01324,-1.43039 8.63292,-1.42387 0.19031,0.002 0.33073,0.34048 0.33073,0.79723 0,0.70155 -0.0901,0.79375 -0.77614,0.79375 -0.42687,0 -2.38776,0.29766 -4.35752,0.66146 -1.96976,0.3638 -4.07581,0.66146 -4.68009,0.66146 -1.08011,0 -1.09202,-0.0101 -0.70353,-0.59532 z m 13.16311,-1.67868 c 0,-0.82037 1.33959,-1.35671 4.81253,-1.92682 1.93702,-0.31798 4.16678,-0.6935 4.95504,-0.8345 1.92759,-0.34478 2.40327,-0.32338 2.40327,0.10813 0,0.7193 -0.82052,1.00656 -4.68055,1.6386 -2.15513,0.35288 -4.72208,0.80054 -5.70435,0.99481 -1.42599,0.28201 -1.78594,0.286 -1.78594,0.0198 z m -84.117573,10.97524 c 2.98099,-0.89029 4.440562,-1.53624 5.003247,-2.21423 0.320565,-0.38626 0.291362,-0.40329 -0.282283,-0.16466 -0.351912,0.14639 -2.276948,0.76823 -4.27786,1.38187 -2.295835,0.70408 -3.638021,1.24576 -3.638021,1.46824 0,0.47608 0.04555,0.46936 3.194917,-0.47122 z m 88.782493,-2.11155 c -0.25258,-1.26289 -1.66043,-4.04221 -2.44495,-4.82674 -0.47881,-0.47881 -0.98483,-0.70462 -1.57897,-0.70462 -1.27032,0 -1.29756,0.36013 -0.079,1.04498 1.12084,0.62994 2.52424,2.54694 3.15736,4.31283 0.44623,1.24463 1.187,1.38059 0.94559,0.17355 z m -70.55756,-5.86209 c -0.0151,-7.12226 -0.34944,-12.93558 -1.03082,-17.92552 -0.74741,-5.47352 -0.6966,-5.29167 -1.47868,-5.29167 h -0.65874 l 0.0685,14.08907 0.0685,14.08906 1.19063,0.1587 c 0.65484,0.0873 1.33945,0.17658 1.52135,0.19843 0.25533,0.0307 0.32813,-1.18171 0.31933,-5.31807 z m 9.27181,4.9448 c 1.09141,-0.22691 2.06464,-0.49471 2.16273,-0.59509 0.0981,-0.10039 -0.22524,-1.6708 -0.71852,-3.48981 -1.56601,-5.77473 -2.99331,-11.37116 -4.08249,-16.00729 -0.89658,-3.81637 -2.49249,-10.03067 -3.6862,-14.35365 l -0.3105,-1.12448 h -1.28654 -1.28653 l 0.46993,2.18281 c 0.25846,1.20055 0.54937,2.77813 0.64646,3.50573 0.0971,0.72761 0.29087,1.91823 0.43062,2.64584 0.13974,0.7276 0.61447,3.28744 1.05494,5.68854 0.88607,4.83022 1.7821,9.54148 2.9186,15.34583 0.41315,2.11005 0.83188,4.46154 0.93051,5.22552 0.0986,0.76398 0.31282,1.38897 0.47597,1.38885 0.16316,-1.2e-4 1.18962,-0.18588 2.28102,-0.4128 z m 66.25167,-2.48778 c -0.0146,-0.15081 -0.0443,-0.44788 -0.0661,-0.66015 -0.0312,-0.30335 -0.47847,-0.20259 -2.09021,0.47089 -1.74459,0.72898 -2.06257,0.95967 -2.13131,1.54617 l -0.0808,0.68935 2.19745,-0.88603 c 1.2086,-0.48731 2.18555,-1.00941 2.171,-1.16023 z m -106.950377,0.51089 c 0.04684,-0.35904 -0.03389,-0.71234 -0.17941,-0.7851 -0.152403,-0.0762 -0.293648,0.37252 -0.333133,1.05834 -0.07186,1.24817 0.342889,1.02707 0.512543,-0.27324 z m -1.407306,-1.04968 c 1.867212,-1.79105 2.109808,-2.33587 0.623274,-1.39975 -0.978745,0.61636 -2.70267,2.4655 -2.70267,2.89898 0,0.19407 0.03343,0.35285 0.07428,0.35285 0.04085,0 0.943156,-0.83343 2.005116,-1.85208 z M 180.10044,136.0831 c 1.40049,-0.34346 2.37437,-0.72407 2.4664,-0.96391 0.0836,-0.21798 0.11952,-0.42825 0.0797,-0.46727 -0.0398,-0.039 -1.3523,0.22821 -2.91665,0.59383 -1.94347,0.45424 -2.84427,0.78198 -2.84427,1.03485 0,0.49916 0.49923,0.46849 3.2148,-0.1975 z M 48.045696,134.55667 c -0.162431,-0.3035 -0.412947,-0.55182 -0.556702,-0.55182 -0.143756,0 -0.06391,0.30137 0.17744,0.66971 0.513056,0.78302 0.811729,0.69019 0.379262,-0.11789 z m 20.889955,0.50579 c 4.037052,-0.27093 7.876901,-0.89676 9.006809,-1.46796 0.479016,-0.24215 0.808456,-0.77145 1.145328,-1.84013 0.260091,-0.8251 0.409333,-1.56375 0.331647,-1.64143 -0.07769,-0.0777 -0.890739,-0.004 -1.806786,0.16283 -8.05213,1.4701 -23.328926,0.85277 -29.076125,-1.17496 -0.604259,-0.2132 -1.194178,-0.38763 -1.310932,-0.38763 -0.116754,0 -0.295407,0.66533 -0.397007,1.47851 -0.221193,1.77037 -0.117846,1.90419 2.22285,2.87814 2.61719,1.089 6.345883,1.76735 10.888383,1.98089 2.255573,0.10603 4.339167,0.20997 4.630208,0.23099 0.291042,0.021 2.255573,-0.0776 4.365625,-0.21925 z m 72.291859,-3.37805 c 0.72553,-0.18973 0.41235,-0.71119 -0.47787,-0.79565 -0.71494,-0.0678 -0.80449,0.0259 -1.1853,1.24081 -0.22656,0.7228 -0.29562,1.2423 -0.15347,1.15445 0.15292,-0.0945 0.18573,0.0298 0.0803,0.30442 -0.098,0.25529 -0.0983,0.59336 -6.7e-4,0.75128 0.0976,0.15791 0.41805,-0.34609 0.71211,-1.12001 0.32422,-0.85328 0.7276,-1.45757 1.02486,-1.5353 z m 2.84732,0.78347 c -0.004,-0.69494 -1.57289,-3.26426 -1.87819,-3.07558 -0.14964,0.0925 -0.1914,0.36447 -0.0928,0.60441 0.16224,0.39484 0.2555,0.87814 0.3522,1.82532 0.0505,0.49497 1.07373,1.43165 1.36634,1.25081 0.14021,-0.0867 0.25381,-0.35889 0.25245,-0.60496 z m -10.44856,-1.10887 c 0.10672,-0.17267 -1.50176,-0.26458 -4.63021,-0.26458 -3.12844,0 -4.73692,0.0919 -4.63021,0.26458 0.0986,0.15949 1.93782,0.26459 4.63021,0.26459 2.69239,0 4.53164,-0.1051 4.63021,-0.26459 z m -2.41069,-1.01069 c 0.0737,-0.11932 -1.08009,-1.4235 -2.56408,-2.89818 l -2.69815,-2.68124 -1.45521,-0.0784 c -1.23575,-0.0666 -1.46694,-0.16038 -1.533,-0.62215 -0.0428,-0.29907 0.1746,-0.77217 0.48307,-1.05133 0.47953,-0.43397 1.07255,-0.52252 4.08984,-0.61069 l 3.52899,-0.10313 0.089,3.22685 c 0.098,3.55263 0.29632,3.97686 1.85935,3.97686 0.72823,0 0.7432,-0.0306 0.74424,-1.52135 0.002,-2.41592 0.73726,-6.32436 1.45788,-7.74643 0.36175,-0.71388 0.65773,-1.35944 0.65773,-1.43459 0,-0.0751 -0.56555,-0.41559 -1.25677,-0.75654 -1.16505,-0.57467 -1.31441,-0.59108 -2.04643,-0.22487 -0.4343,0.21728 -2.10118,0.55302 -3.70416,0.7461 -3.07576,0.37048 -11.611,0.50126 -13.2967,0.20375 -0.94644,-0.16704 -0.97309,-0.15274 -0.5471,0.29356 0.33646,0.3525 1.15879,0.53437 3.30729,0.73145 1.57272,0.14426 2.90176,0.29685 2.95342,0.33909 0.0517,0.0422 -0.30873,0.43034 -0.80088,0.86245 -0.49215,0.43211 -1.42721,1.45285 -2.07791,2.26831 -0.6507,0.81545 -1.39163,1.54883 -1.64651,1.62973 -0.29597,0.0939 -0.46342,0.41445 -0.46342,0.88704 0,0.67611 0.10245,0.754 1.18722,0.90268 1.39591,0.19133 3.65392,1.29188 5.69195,2.77424 l 1.45521,1.05844 3.22553,0.0226 c 1.77404,0.0124 3.28586,-0.075 3.35961,-0.19431 z m -57.435778,-1.1266 c -0.464415,-0.29748 -2.003777,-1.01442 -3.420806,-1.5932 l -2.576415,-1.05232 -6.236486,-0.0465 c -5.8072,-0.0433 -6.354866,-0.006 -7.956276,0.53813 -2.139837,0.72736 -2.924912,1.22189 -1.5875,0.99999 4.236599,-0.70291 13.640323,-0.31174 18.67524,0.77685 1.71679,0.37118 3.178122,0.73156 3.247403,0.80084 0.06928,0.0693 0.254951,0.12396 0.412599,0.12151 0.157647,-0.002 -0.09334,-0.24785 -0.557759,-0.54534 z m 103.556558,-0.40579 c 0.90416,-0.5636 1.91748,-2.52434 2.23439,-4.3235 0.45753,-2.59746 -0.48192,-6.25624 -1.81189,-7.05654 -1.48312,-0.89246 -2.93851,-0.66735 -4.17835,0.64626 -1.24747,1.3217 -1.77752,3.03253 -1.8182,5.86853 -0.0307,2.13909 0.0521,2.67845 0.55573,3.62054 0.84939,1.58891 1.45231,1.93236 3.08138,1.75529 0.74466,-0.0809 1.61629,-0.3107 1.93694,-0.51058 z m -3.70226,-0.69806 c -1.03461,-1.40628 -1.31521,-2.42579 -1.2002,-4.36086 0.19267,-3.24208 1.93375,-5.88764 3.87678,-5.89076 0.91958,-10e-4 2.06159,1.31593 2.54168,2.93205 0.49991,1.6828 0.33327,4.00804 -0.40548,5.65809 -0.39935,0.892 -0.4984,0.97453 -0.63825,0.53184 -0.091,-0.28821 -0.38811,-1.00026 -0.66014,-1.58234 -0.42435,-0.908 -0.49694,-0.96563 -0.51102,-0.40572 -0.009,0.35893 0.18464,1.17905 0.43036,1.82247 0.44143,1.15586 0.4395,1.17575 -0.1616,1.66249 -0.35718,0.28922 -1.0277,0.49263 -1.62393,0.49263 -0.8396,0 -1.12517,-0.14899 -1.6482,-0.85989 z m 2.04036,-1.28255 c 0.50815,-1.26999 0.52114,-1.56172 0.0696,-1.56172 -0.39815,0 -1.23963,1.61688 -1.23963,2.38192 0,0.83313 0.70677,0.3377 1.17007,-0.8202 z m -0.65554,-1.58839 c 0.008,-0.0874 -0.40208,-0.0285 -0.9114,0.13089 -0.86895,0.27197 -1.14456,0.6474 -0.75862,1.03334 0.16677,0.16677 1.64217,-0.86178 1.67002,-1.16423 z m 0.26969,-2.39807 c -0.32976,-0.64287 -1.28638,-1.52792 -1.66252,-1.53813 -0.55268,-0.015 0.0474,1.23055 0.85425,1.77296 1.0402,0.69932 1.25537,0.6368 0.80827,-0.23483 z m 2.50795,-0.51181 c 0.95023,-0.56065 1.14223,-0.87671 0.69899,-1.15065 -0.27016,-0.16696 -1.87449,1.0868 -1.87449,1.46488 0,0.34151 0.11719,0.31018 1.1755,-0.31423 z m -1.3361,-0.65697 c 0.28881,-0.75261 0.18013,-3.28565 -0.14096,-3.28565 -0.5905,0 -1.00465,0.94655 -1.01294,2.3151 -0.007,1.18947 0.0636,1.38907 0.49244,1.38907 0.27547,0 0.57313,-0.18833 0.66146,-0.41852 z m -0.81845,-1.16898 c 0,-0.80037 0.0496,-1.12779 0.11022,-0.72761 0.0606,0.40019 0.0606,1.05503 0,1.45521 -0.0606,0.40018 -0.11022,0.0728 -0.11022,-0.7276 z m -34.34282,8.20208 c -0.0899,-0.14552 -0.27556,-0.26458 -0.41249,-0.26458 -0.13694,0 -0.24897,0.11906 -0.24897,0.26458 0,0.14552 0.18562,0.26458 0.41249,0.26458 0.22687,0 0.3389,-0.11906 0.24897,-0.26458 z m 26.35473,-0.19844 c -0.8202,-1.49219 -0.70497,-1.463 -3.97488,-1.00693 -5.35503,0.7469 -5.86415,1.0204 -2.27152,1.22028 1.45521,0.081 3.51322,0.17025 4.57337,0.19843 1.76406,0.0469 1.90595,0.012 1.67303,-0.41178 z m -27.80994,-0.47565 c 0,-0.70686 -1.12804,-1.97174 -1.75843,-1.97174 -0.69792,0 -0.34459,1.03106 0.62809,1.83282 0.54248,0.44715 1.01873,0.81301 1.05833,0.81301 0.0396,0 0.072,-0.30334 0.072,-0.67409 z m 15.01304,-1.48958 4.03284,-0.87904 0.002,-0.75591 c 0.002,-0.59966 -0.0898,-0.72065 -0.44252,-0.58531 -0.24452,0.0938 -1.49338,0.40422 -2.77524,0.68975 -2.80614,0.62505 -4.69989,1.32033 -6.07516,2.23044 -1.36226,0.9015 -1.30383,1.29272 0.10071,0.67426 0.61846,-0.27233 2.93925,-0.89071 5.15731,-1.37419 z m -20.39406,0.77461 c -0.0734,-0.1819 -0.13346,-0.0331 -0.13346,0.33073 0,0.3638 0.0601,0.51263 0.13346,0.33073 0.0734,-0.1819 0.0734,-0.47956 0,-0.66146 z m -38.294601,0.0975 c 0.361025,-0.58415 0.624971,-11.30041 0.293586,-11.91961 -0.255228,-0.47689 -0.542324,-0.54715 -2.235821,-0.54715 h -1.942991 l 0.248179,1.16363 c 0.136498,0.64 0.211361,3.56914 0.166362,6.5092 l -0.08182,5.34558 1.671759,-0.10676 c 0.966019,-0.0617 1.759982,-0.24949 1.880742,-0.44489 z m 47.886571,-0.31013 c 1.04231,-0.75505 1.27369,-1.28849 0.64919,-1.49666 -0.48866,-0.16288 -2.47617,1.47467 -2.3113,1.90433 0.21355,0.55649 0.39131,0.51289 1.66211,-0.40767 z m -52.531876,-0.052 c 0.212698,-0.79367 0.211536,-9.05834 -0.0015,-10.61255 -0.167909,-1.22502 -0.675809,-1.63839 -0.994063,-0.80903 -0.212969,0.55498 -0.206817,9.22459 0.0077,10.78934 0.179049,1.30631 0.715287,1.64949 0.987899,0.63224 z m 38.795926,-0.85989 c 0,-0.54067 -0.12922,-0.66146 -0.70758,-0.66146 h -0.70758 l 0.62141,0.66146 c 0.34177,0.3638 0.66018,0.66146 0.70758,0.66146 0.0474,0 0.0862,-0.29766 0.0862,-0.66146 z m 6.07634,-5.14158 c 1.04399,-2.0464 2.46676,-2.71031 6.63931,-3.09811 1.71222,-0.15913 1.90351,-0.12423 2.53151,0.4619 0.94743,0.88426 1.58862,2.23577 1.92565,4.05895 0.15821,0.85582 0.35826,1.62595 0.44456,1.7114 0.20827,0.20621 -0.10639,-1.62754 -0.56645,-3.30111 -0.49058,-1.78456 -1.72435,-3.45907 -2.70779,-3.67507 -1.05754,-0.23227 -5.26353,0.32008 -6.34496,0.83326 -1.60874,0.76339 -2.70218,2.6411 -3.33747,5.73126 -0.63925,3.10945 -0.49205,3.55247 0.24919,0.74996 0.35827,-1.35459 0.88318,-2.91719 1.16645,-3.47244 z m 4.65745,3.95095 c -0.12254,-1.24355 -0.0903,-1.85208 0.0981,-1.85208 0.16627,0 0.28061,0.64052 0.28061,1.57189 0,1.54329 0.31815,2.27005 0.63373,1.44766 0.23816,-0.62064 0.18578,-3.09841 -0.0742,-3.5086 -0.37093,-0.58533 -1.16643,-0.23255 -1.40111,0.62134 -0.19804,0.72059 -0.0507,2.88661 0.22943,3.37344 0.32136,0.55844 0.39794,0.016 0.23342,-1.65365 z m 12.02037,-0.14182 c 1.81901,-0.49037 3.81331,-1.02085 4.43177,-1.17883 1.00845,-0.2576 1.12448,-0.36895 1.12448,-1.0791 0,-0.43552 -0.15985,-0.8532 -0.35523,-0.92817 -0.45533,-0.17473 -5.23033,1.3463 -6.78852,2.16241 -1.32028,0.69151 -1.79346,1.05125 -2.38125,1.81036 -0.36696,0.47393 -0.35699,0.4972 0.1323,0.30874 0.29104,-0.11211 2.01744,-0.60504 3.83645,-1.09541 z m -107.560589,0.0739 c -0.08242,-0.32838 -0.173983,-2.53061 -0.203479,-4.89384 -0.07097,-5.68584 -0.555898,-5.62052 -0.658432,0.0887 -0.08225,4.5798 0.01136,5.4022 0.614886,5.4022 0.279798,0 0.352669,-0.17613 0.247025,-0.59705 z m 4.095649,-1.7842 c 0.417482,-0.80036 1.004191,-1.71416 1.303797,-2.03065 0.53435,-0.56446 2.733235,-1.16426 5.659911,-1.54387 0.694265,-0.09 1.940366,-0.52041 2.769114,-0.95636 0.828748,-0.43594 2.403839,-1.01717 3.500201,-1.2916 1.096363,-0.27444 2.945887,-0.74187 4.110053,-1.03874 1.164167,-0.29687 3.664479,-0.66472 5.55625,-0.81744 3.662239,-0.29565 9.090893,-0.94953 10.186458,-1.22696 2.00126,-0.50676 -2.796345,-0.73851 -21.062187,-1.01739 l -9.023646,-0.13778 -0.987848,2.16107 c -1.742887,3.81282 -4.059981,11.2393 -3.042605,9.7518 0.149294,-0.21828 0.61302,-1.05171 1.030502,-1.85208 z m 80.71078,1.3432 c 0,-0.77102 -0.003,-0.77222 -0.79375,-0.3775 -1.11769,0.55758 -1.02675,1.15097 0.17639,1.15097 0.50597,0 0.61736,-0.13956 0.61736,-0.77347 z m 32.80833,-0.0654 c 1.67349,-0.4595 3.87615,-0.90667 4.89479,-0.99372 l 1.85208,-0.15827 -1.4552,-0.22778 c -2.51312,-0.39337 -4.28608,-0.29522 -6.80958,0.37697 -2.16248,0.57603 -2.44435,0.71956 -2.4474,1.24631 -0.005,0.78376 0.28985,0.76568 3.96531,-0.24351 z m 1.53789,-0.92941 c 0.191,-0.0764 0.4192,-0.067 0.50712,0.0209 0.0879,0.0879 -0.0684,0.15046 -0.34727,0.13897 -0.30822,-0.0127 -0.37092,-0.0754 -0.15985,-0.15985 z m -1.81827,-1.3024 c 1.47687,-0.4173 2.49264,-0.87784 2.99933,-1.35987 0.79222,-0.75365 1.36831,-1.62459 1.19153,-1.80137 -0.0556,-0.0556 -0.92848,0.1725 -1.93967,0.50696 -1.01118,0.33445 -2.82019,0.89618 -4.02001,1.24828 -2.21138,0.64895 -2.43668,0.86482 -2.02426,1.93957 0.17974,0.46838 0.31394,0.4495 3.79308,-0.53357 z m -115.607111,-3.4621 c 0,-2.96423 -0.0058,-2.99214 -0.621722,-2.99214 -0.607791,0 -0.619455,0.0459 -0.520583,2.05052 0.05563,1.12778 0.168701,2.70222 0.251277,3.49875 0.13697,1.32119 0.182635,1.40379 0.520584,0.94162 0.265833,-0.36355 0.370444,-1.35157 0.370444,-3.49875 z m 122.427621,3.29171 c 0.14021,-0.1819 0.44163,-1.10463 0.66983,-2.05052 0.55293,-2.29193 1.42511,-4.56886 2.05859,-5.3742 0.42387,-0.53887 0.90486,-0.71252 2.70118,-0.97518 1.20201,-0.17576 2.6022,-0.27757 3.11152,-0.22624 0.83227,0.0839 1.00343,0.24813 1.69028,1.62215 0.42033,0.84085 0.81622,1.47683 0.87977,1.41328 0.0635,-0.0635 0.1119,-1.44891 0.10746,-3.0786 -0.01,-3.55063 -0.29679,-4.22913 -1.78963,-4.22913 -1.03333,0 -7.59044,1.47437 -8.33914,1.87506 -0.29319,0.15691 -0.89345,1.61126 -1.65676,4.01415 -0.82271,2.58987 -1.49111,4.17902 -2.13763,5.0823 l -0.94065,1.31422 0.60305,0.24224 c 0.49015,0.19689 1.63767,0.49055 2.62117,0.67077 0.0913,0.0167 0.28075,-0.1184 0.42096,-0.3003 z m 1.63196,-1.85487 c 0.78257,-2.87416 1.55794,-4.41944 2.37301,-4.72933 0.37239,-0.14158 1.63359,-0.37736 2.80268,-0.52395 2.02638,-0.25408 2.14735,-0.2397 2.591,0.3082 0.57253,0.70704 0.59765,0.481 0.0617,-0.55538 -0.4669,-0.90287 -0.33304,-0.88784 -3.43279,-0.38536 -1.94158,0.31474 -2.48917,0.5097 -2.96574,1.05589 -0.61412,0.70383 -1.80531,4.1309 -2.09626,6.03096 -0.25156,1.64285 0.0304,1.1346 0.66638,-1.20103 z m -22.84162,0.0142 c -0.1022,-0.90325 -0.33744,-2.00519 -0.52278,-2.44875 -0.18533,-0.44357 -0.42249,-1.69884 -0.52702,-2.7895 -0.297,-3.09887 -0.31768,-3.14493 -1.30068,-2.89667 -4.9086,1.23966 -10.19327,2.62773 -10.57592,2.77788 -0.26187,0.10276 -0.76395,0.61039 -1.11573,1.12808 l -0.6396,0.94125 1.32026,0.75402 1.32025,0.75403 0.91358,-0.69682 c 0.69793,-0.53234 1.49276,-0.78379 3.36735,-1.06528 3.56926,-0.53598 4.01216,-0.49777 5.07801,0.43806 0.87945,0.77216 2.53514,3.64015 2.53514,4.39136 0,0.19504 0.0749,0.35461 0.16647,0.35461 0.0916,0 0.0829,-0.73902 -0.0193,-1.64227 z m 10.79842,-3.02586 c 0.47679,-2.6729 0.55417,-3.9244 0.20216,-3.26937 -0.11731,0.21829 -0.35881,1.40891 -0.53667,2.64584 -0.17787,1.23692 -0.38435,2.54661 -0.45886,2.91041 -0.0859,0.41931 -0.0444,0.5646 0.11319,0.39688 0.13676,-0.14552 0.44284,-1.35321 0.68018,-2.68376 z m -39.74443,0.4348 c -0.75092,-0.75091 -0.90908,-0.79375 -2.93077,-0.79375 -1.67533,0 -2.13702,0.0816 -2.13702,0.37784 0,0.26529 0.45316,0.42484 1.52135,0.53563 1.32945,0.1379 4.00762,0.54039 4.25369,0.63927 0.0476,0.0191 -0.27069,-0.32243 -0.70725,-0.75899 z m 7.70077,0.40176 c 2.29328,-0.21215 4.3938,-0.50571 4.66781,-0.65236 0.58235,-0.31166 1.87821,-1.7957 1.87821,-2.15095 0,-0.51962 -1.06827,-0.21049 -1.4884,0.4307 -0.77889,1.18874 -1.81606,1.50765 -5.65535,1.73892 -3.90455,0.2352 -4.7625,0.37322 -4.7625,0.76614 0,0.33681 0.39247,0.32711 5.36023,-0.13245 z m -4.79529,-0.78828 0.89027,-0.38652 -1.28917,-0.0104 c -1.11651,-0.009 -1.24505,0.0428 -0.95979,0.38652 0.39829,0.4799 0.27925,0.479 1.35869,0.0104 z m 3.27152,-0.67181 c -0.0899,-0.14552 -0.38759,-0.26459 -0.66146,-0.26459 -0.27386,0 -0.57152,0.11907 -0.66146,0.26459 -0.0957,0.15478 0.17885,0.26458 0.66146,0.26458 0.48261,0 0.75712,-0.1098 0.66146,-0.26458 z m 2.11667,0 c -0.0899,-0.14552 -0.32807,-0.26459 -0.52917,-0.26459 -0.20111,0 -0.43923,0.11907 -0.52917,0.26459 -0.0931,0.15065 0.13475,0.26458 0.52917,0.26458 0.39442,0 0.62228,-0.11393 0.52917,-0.26458 z m 2.12754,-0.0176 c 0.31026,-0.502 -0.14224,-0.62588 -0.60304,-0.16508 -0.41247,0.41247 -0.41319,0.44727 -0.009,0.44727 0.24088,0 0.51644,-0.12698 0.61236,-0.28219 z m -2.789,-1.31764 c 5.16047,-0.60917 9.19992,-1.37656 13.43542,-2.55239 l 1.39687,-0.38779 1.13741,-2.42635 c 1.1957,-2.55072 3.71662,-5.9423 5.40529,-7.27217 1.48918,-1.17276 3.46113,-2.08012 5.31211,-2.44428 2.90358,-0.571249 9.94965,0.19321 12.18909,1.32244 1.5556,0.78441 2.15791,0.91329 1.96914,0.42136 -0.25489,-0.66424 -0.85903,-0.87694 -5.03932,-1.7742 -3.37602,-0.724629 -4.47771,-0.844939 -7.89247,-0.861889 -3.68784,-0.0183 -4.06008,0.0256 -5.25911,0.62055 -1.71934,0.853089 -5.55344,4.539279 -7.7,7.402949 l -1.73386,2.3131 -2.31081,0.72094 c -1.27094,0.39652 -3.02518,0.8321 -3.8983,0.96797 -1.74537,0.2716 -3.35291,0.67715 -6.72674,1.69703 -1.22584,0.37056 -2.27285,0.62971 -2.32667,0.57589 -0.22011,-0.22011 6.83119,-2.61055 8.87914,-3.01008 1.4242,-0.27785 2.03419,-0.49266 1.71979,-0.60565 -0.26795,-0.0963 -4.23766,-0.25636 -8.82157,-0.35571 -4.5839,-0.0993 -9.58453,-0.33487 -11.11249,-0.5234 -3.15128,-0.38882 -3.54926,-0.33309 -3.32618,0.46581 0.0858,0.30735 0.38293,1.57086 0.66023,2.80778 0.27729,1.23693 0.63706,2.5938 0.79948,3.01527 l 0.2953,0.7663 4.29131,-0.18407 c 2.36022,-0.10124 6.25584,-0.41598 8.65694,-0.69941 z m 26.52959,-0.64913 c 2.79249,-0.80036 5.28805,-1.45521 5.5457,-1.45521 0.57408,0 0.57624,-0.12363 0.0394,-2.26072 -0.50453,-2.00852 -0.60867,-2.04159 -3.42723,-1.08834 -1.00775,0.34082 -3.29079,0.89609 -5.07342,1.23392 -3.6577,0.69319 -3.38549,0.39191 -3.07116,3.39925 0.11864,1.13507 0.28166,1.62631 0.53971,1.62631 0.20336,0 2.6545,-0.65484 5.44698,-1.45521 z m 14.92615,-0.71107 c -0.0845,-0.21106 -0.14716,-0.14837 -0.15986,0.15986 -0.0115,0.27891 0.0511,0.43518 0.13897,0.34726 0.0879,-0.0879 0.0973,-0.31612 0.0209,-0.50712 z m 0.76602,-2.26682 c -0.15933,-0.15933 -0.69284,1.13775 -0.6606,1.60605 0.0119,0.17243 0.19646,-0.0873 0.4102,-0.57717 0.21373,-0.48987 0.32641,-0.95286 0.2504,-1.02888 z m -7.97954,1.00162 c 0.37103,-0.14106 1.82856,-0.56352 3.23897,-0.93879 3.9437,-1.04932 4.77778,-1.49795 6.66827,-3.5867 0.92611,-1.02323 1.64048,-1.8909 1.5875,-1.92816 -3.55956,-2.50257 -3.98518,-2.72829 -5.37994,-2.85314 l -1.05026,-0.094 0.0736,1.05876 c 0.0618,0.88987 -0.079,1.23699 -0.88276,2.17602 -0.77844,0.90942 -1.28579,1.21385 -2.72747,1.63657 -0.97412,0.28562 -2.22755,0.60145 -2.7854,0.70184 -0.87698,0.15782 -0.99196,0.25856 -0.8495,0.74425 0.0906,0.30895 0.30372,1.1868 0.47357,1.95079 0.32004,1.43957 0.49923,1.56381 1.63346,1.13258 z m -76.214665,-2.01614 c 0.416768,-0.52233 1.250206,-1.17805 1.852084,-1.45716 1.091819,-0.5063 1.063746,-0.5072 -12.267135,-0.3902 -14.883415,0.13062 -17.65212,0.32848 -19.822695,1.41664 -0.788784,0.39543 -1.483315,0.86779 -1.543402,1.0497 -0.08657,0.26207 3.122135,0.33072 15.45707,0.33072 l 15.566319,-1e-5 z m 66.576955,-0.77374 c 1.84079,-0.24737 3.19457,-0.56224 3.43014,-0.79781 0.34249,-0.34249 0.31642,-0.38916 -0.21735,-0.38916 -0.64135,0 -6.45566,0.97772 -7.24979,1.2191 -0.66213,0.20127 -0.28248,0.66176 0.41693,0.50573 0.3185,-0.0711 1.94754,-0.3131 3.62007,-0.53786 z M 175.409,108.7466 c 2.15999,-0.50414 3.9877,-0.97706 4.06156,-1.05093 0.24523,-0.24523 -1.22466,-0.65772 -3.53316,-0.99149 l -2.27989,-0.32964 -0.77344,0.91674 c -1.28453,1.52252 -1.86783,2.37195 -1.62881,2.37195 0.12456,0 1.99375,-0.41248 4.15374,-0.91663 z m -25.51086,-0.25403 c 1.23693,-0.20637 2.93357,-0.45268 3.77032,-0.54736 1.50435,-0.17022 1.91469,-0.45568 1.10284,-0.76721 -0.85944,-0.3298 -5.14833,-0.16328 -6.10655,0.23709 l -0.95181,0.39769 0.1847,-1.65446 c 0.15043,-1.34756 0.12153,-1.59221 -0.1558,-1.31888 -0.38416,0.37862 -0.67505,4.03051 -0.32095,4.0292 0.12556,-4.7e-4 1.24033,-0.1697 2.47725,-0.37607 z m -27.30338,-1.62828 c 6.30519,-2.69963 7.66527,-3.25151 9.31172,-3.77842 1.90909,-0.61096 7.41136,-1.82761 11.57552,-2.55954 1.49159,-0.26218 2.71198,-0.593789 2.71198,-0.736919 0,-0.1681 -2.45909,-0.20291 -6.94532,-0.0983 -7.68654,0.1792 -8.9472,0.374299 -12.12699,1.876819 -3.36645,1.59072 -10.39861,5.43405 -10.9481,5.98354 -0.52264,0.52264 -0.51786,0.52427 1.53375,0.52427 1.85601,0 2.33574,-0.11891 4.88744,-1.21144 z m -19.52786,0.45009 c 0,-0.27323 -0.19565,-0.66018 -0.43477,-0.8599 -0.79715,-0.6658 -5.684561,-1.02055 -16.377851,-1.18878 l -10.594912,-0.16669 -0.281983,0.91879 -0.281982,0.91878 10.215436,0.1895 c 5.618491,0.10422 10.929812,0.28349 11.802937,0.39838 0.873125,0.11489 2.569765,0.22639 3.770315,0.24779 1.97278,0.0352 2.18281,-0.009 2.18281,-0.45787 z m -29.225849,-0.23489 c 0.339056,-0.2395 0.912194,-2.0938 0.709739,-2.29626 -0.398992,-0.39899 -1.401306,-0.068 -2.019744,0.66697 -0.978981,1.16345 -0.914917,1.83286 0.174918,1.82773 0.472942,-0.002 0.983731,-0.0915 1.135087,-0.19844 z m 84.523759,-1.41454 c 0,-1.83174 -1.01903,-5.13347 -1.44852,-4.69332 -0.10484,0.10744 0.5904,4.94969 0.78497,5.46723 0.21961,0.58414 0.66355,0.0664 0.66355,-0.77391 z m -6.44035,-1.55797 c 1.36286,-0.43656 2.70489,-0.79375 2.98229,-0.79375 1.02031,0 1.34139,-0.30044 1.34139,-1.25516 v -0.93395 l -1.66984,0.13404 c -2.69882,0.21663 -5.73849,1.89202 -5.73849,3.16291 0,0.63392 0.18349,0.61524 3.08465,-0.31409 z m 13.86268,-0.41017 c -0.12821,-0.42925 -0.24333,-0.58183 -0.25584,-0.33907 -0.0254,0.49273 0.25702,1.35142 0.39807,1.21037 0.05,-0.05 -0.014,-0.44206 -0.14223,-0.8713 z m -58.49113,-0.11673 c 0.27423,-0.14677 0.86362,-0.26685 1.30974,-0.26685 0.67495,0 0.81115,-0.10436 0.81115,-0.62155 0,-0.59644 -0.0999,-0.62812 -2.47365,-0.78404 -1.36051,-0.0894 -4.70035,-0.0884 -7.421859,0.002 l -4.948203,0.16457 0.07967,0.68562 0.07967,0.68561 3.042708,0.0286 c 1.67349,0.0157 3.518954,0.15834 4.101044,0.31696 1.19977,0.32695 4.6668,0.19198 5.41973,-0.21097 z m -29.827547,-0.22746 c 0.644428,-0.53721 0.578058,-1.26976 -0.132291,-1.46013 -0.775853,-0.20792 -3.761654,-0.2061 -5.027083,0.003 -0.718732,0.1188 -0.992188,0.29539 -0.992188,0.64072 0,0.54442 0.581061,0.77581 2.645833,1.05359 2.035075,0.27379 2.968489,0.21062 3.505729,-0.23724 z m 16.023263,-0.50241 -0.08212,-0.99219 -2.381249,-0.0778 c -3.149454,-0.10291 -3.628609,0.0259 -3.522413,0.94693 0.07489,0.64948 0.209692,0.73342 1.405746,0.87524 0.727604,0.0863 2.074244,0.17558 2.992534,0.19844 l 1.669617,0.0416 z m -6.764235,-0.19844 0.126446,-0.66146 h -3.93206 -3.93206 v 0.66146 0.66146 h 3.805614 3.805614 z m 77.263049,-0.38013 c 0.68556,-0.26442 0.48605,-0.37861 -1.3924,-0.79697 -1.18217,-0.26329 -4.49791,-0.38347 -4.49791,-0.16304 0,0.0633 0.12251,0.4373 0.27224,0.83114 l 0.27225,0.71606 2.37692,-0.17943 c 1.3073,-0.0987 2.64331,-0.28218 2.9689,-0.40776 z m -108.813222,1.70305 c 0,-1.49847 0.100002,-2.24896 0.299672,-2.24896 0.16482,0 1.801929,-0.87709 3.638021,-1.949099 6.910585,-4.03475 12.44863,-7.32151 15.906057,-9.44004 1.964531,-1.20376 4.107656,-2.4864 4.762499,-2.85031 0.654844,-0.36392 3.33375,-1.93427 5.953125,-3.48968 10.933354,-6.49235 28.320858,-16.72816 29.119808,-17.14248 0.44196,-0.2292 0.76662,-0.14244 1.71979,0.45957 0.64624,0.40816 2.90139,1.74725 5.01144,2.97577 2.11005,1.22851 6.33677,3.72502 9.39271,5.5478 7.76186,4.62974 29.54181,17.57022 31.6177,18.78555 0.94589,0.55377 2.707,1.50041 3.91357,2.10364 1.20658,0.60324 2.13726,1.15331 2.06818,1.22239 -0.0691,0.0691 -1.65159,-0.12409 -3.51669,-0.42926 -9.3676,-1.53278 -11.59466,-1.70955 -21.77964,-1.72876 l -9.65729,-0.0182 -3.57188,0.89937 c -2.46473,0.62061 -4.47398,1.33566 -6.48229,2.30691 -3.61002,1.745869 -7.53515,3.984139 -9.19946,5.245899 -1.39431,1.05706 -1.81532,0.85644 -1.30069,-0.61981 0.3555,-1.01979 -0.0772,-2.72713 -0.89951,-3.54946 -1.28731,-1.287309 -1.54592,-1.301929 -22.276059,-1.259069 -11.902037,0.0246 -19.671574,0.14032 -20.111527,0.29952 -1.343615,0.48622 -1.848861,0.83532 -2.142894,1.480649 -0.42965,0.94298 -0.358794,2.52609 0.14527,3.24574 0.412659,0.58915 0.409616,0.64842 -0.05057,0.98491 -0.307919,0.22516 -1.231918,0.35958 -2.4896,0.36218 -1.099973,0.002 -3.663395,0.2404 -5.696493,0.52917 -2.033097,0.28877 -3.848801,0.52503 -4.034895,0.52503 -0.248213,0 -0.338355,-0.59915 -0.338355,-2.24896 z M 94.600233,92.132611 c 3.476883,-1.87107 10.956067,-6.08362 11.641667,-6.557 0.3638,-0.25119 2.62373,-1.55926 5.02208,-2.9068 l 4.36062,-2.45009 1.85708,1.00131 c 1.0214,0.55072 2.86912,1.61939 4.10605,2.37482 5.41402,3.30652 5.27786,3.228 12.96458,7.47678 2.11005,1.16632 4.13412,2.21098 4.49792,2.32146 0.65471,0.19884 0.65642,0.19524 0.16704,-0.35282 -0.27192,-0.30454 -1.28395,-1.05358 -2.24895,-1.66455 -0.96501,-0.61096 -2.40939,-1.54682 -3.20976,-2.07968 -0.80036,-0.53287 -2.05052,-1.30636 -2.77812,-1.71886 -0.72761,-0.41251 -3.28745,-1.96774 -5.68855,-3.45606 -2.40109,-1.48832 -5.54789,-3.41411 -6.9929,-4.27954 l -2.62727,-1.57351 -3.59043,2.03975 c -8.20804,4.66304 -18.446982,11.0834 -19.994598,12.53768 -0.775726,0.72894 -0.77873,0.74144 -0.132292,0.55044 0.363802,-0.1075 1.554427,-0.67599 2.645833,-1.26333 z m 36.153007,0.78017 c -2.84295,-1.82197 -5.87153,-3.68255 -6.57628,-4.04008 -0.47819,-0.24259 -2.17913,-1.29634 -3.77986,-2.34168 -1.60073,-1.04534 -3.32919,-2.15441 -3.84104,-2.4646 l -0.93062,-0.564 -1.97979,1.19611 c -1.08889,0.65786 -3.17042,1.8621 -4.62563,2.6761 -3.24969,1.81777 -6.32753,4.03235 -5.60417,4.03235 0.39761,0 2.2773,-0.96236 3.81044,-1.95086 0.98655,-0.63609 2.56593,-1.54481 3.50973,-2.01937 0.94381,-0.47456 2.45667,-1.33061 3.36192,-1.90233 l 1.64591,-1.03948 0.73913,0.51702 c 3.74606,2.62041 10.72001,6.77538 12.76356,7.60433 1.61839,0.65649 2.26785,0.78429 1.5067,0.29649 z m -43.164465,-2.15954 c 1.415588,-0.62285 9.997944,-5.39289 16.933335,-9.41147 11.45451,-6.63712 11.04609,-6.42879 11.77395,-6.00593 0.82898,0.4816 4.23899,2.48435 8.20208,4.81722 9.59042,5.64537 11.22703,6.56218 15.63412,8.75796 4.26028,2.12265 5.27155,2.54679 5.11436,2.14502 -0.2543,-0.64999 -2.74501,-2.2314 -15.45681,-9.81391 -3.8563,-2.30026 -7.90443,-4.74352 -8.99583,-5.42946 -3.43708,-2.16018 -4.78652,-2.92652 -5.15327,-2.92652 -0.4168,0 -2.35725,1.08123 -9.39881,5.23707 -2.83766,1.67475 -6.766719,3.99194 -8.73125,5.14932 -3.61262,2.12831 -10.632037,6.46687 -11.975506,7.40181 -0.401894,0.27968 -0.659764,0.62331 -0.573046,0.76363 0.179633,0.29065 0.74453,0.14339 2.626677,-0.68474 z m 86.470575,12.268639 c -0.77896,-0.22541 -3.50146,-2.99409 -3.22047,-3.275079 0.22368,-0.22368 5.25301,2.839509 5.25301,3.199419 0,0.41426 -0.76413,0.4427 -2.03254,0.0757 z m -79.779445,96.72418 c 0.05919,-0.411 -0.330842,-0.76548 -1.719792,-1.56304 -0.987986,-0.56732 -4.832431,-2.84209 -8.543212,-5.05504 -3.710782,-2.21295 -8.175625,-4.8503 -9.921875,-5.86077 -1.74625,-1.01047 -5.593407,-3.24445 -8.549237,-4.96439 -3.819414,-2.22244 -5.456197,-3.0452 -5.657528,-2.84387 -0.15581,0.15581 -0.217861,0.4538 -0.137892,0.66219 0.128603,0.33514 6.663441,4.33736 14.344657,8.7853 3.657987,2.11823 13.760182,8.09697 16.801041,9.9433 2.643254,1.60492 3.258334,1.76784 3.383838,0.89632 z m 44.465855,-0.49246 c 0.8223,-0.49343 5.00744,-2.88854 9.3003,-5.32247 7.35735,-4.17142 16.47321,-9.44473 21.3651,-12.3592 1.49478,-0.89055 2.18282,-1.45675 2.18282,-1.79626 0,-0.61996 -0.45004,-0.91955 -0.87149,-0.58017 -0.17553,0.14134 -1.27164,0.76354 -2.43581,1.38265 -1.16416,0.61912 -3.66447,2.04349 -5.55625,3.16528 -1.89177,1.12179 -4.68973,2.75962 -6.2177,3.63962 -1.52797,0.88001 -4.98078,2.8763 -7.67292,4.4362 -6.11847,3.54523 -11.1005,6.33531 -11.71381,6.56008 -0.55671,0.20403 -0.83803,0.82179 -0.62593,1.37452 0.22213,0.57886 0.5803,0.49907 2.24569,-0.50025 z m 39.90593,-19.98551 0.61455,-1.89276 -0.61041,-1.2011 -0.61041,-1.20109 -2.40442,-0.0679 -2.40441,-0.0679 -0.456,1.68458 -0.45599,1.68459 0.71863,1.51328 0.71863,1.51329 2.13764,-0.0361 2.13765,-0.0361 z m -120.929,1.10503 c 0.242496,-0.40018 0.651197,-1.03564 0.908224,-1.41214 0.305256,-0.44715 0.386126,-0.81417 0.233192,-1.05833 -0.128771,-0.20559 -0.373158,-0.99029 -0.543082,-1.74377 l -0.308952,-1.36998 -2.608002,0.0148 c -2.412311,0.0137 -2.608001,0.0538 -2.608001,0.53538 0,0.28633 -0.249877,0.87152 -0.555281,1.30043 l -0.555281,0.77982 0.53016,1.37769 c 0.291587,0.75773 0.597258,1.58605 0.679268,1.84071 0.125598,0.39001 0.4832,0.46302 2.26798,0.46302 2.028221,0 2.137734,-0.0311 2.559775,-0.72761 z m 0.890611,-93.288819 c 0.320109,-1.71919 0.308653,-1.84416 -0.230398,-2.51354 -0.311991,-0.38742 -0.696124,-0.95557 -0.853628,-1.26256 -0.261543,-0.50977 -0.450466,-0.54674 -2.17906,-0.42642 -1.040978,0.0725 -1.933842,0.23874 -1.984141,0.3695 -0.0503,0.13077 -0.39136,0.59417 -0.757913,1.0298 -0.590519,0.70179 -0.654456,0.98056 -0.561112,2.44651 0.15433,2.4237 0.603149,2.78486 3.582837,2.883 2.651911,0.0874 2.46772,0.24332 2.983415,-2.52629 z m 119.525789,1.87524 c 0.34813,-0.37549 0.61778,-1.13401 0.73025,-2.05415 0.15202,-1.24366 0.0821,-1.64864 -0.47406,-2.74578 l -0.65237,-1.28695 -1.88384,-0.037 c -1.03612,-0.0203 -1.88384,0.0541 -1.88384,0.16533 0,0.11127 -0.41063,0.65683 -0.91251,1.21235 l -0.91251,1.01003 0.37411,2.09959 c 0.20576,1.15477 0.37826,2.12934 0.38334,2.16572 0.005,0.0364 1.06004,0.0661 2.34436,0.0661 2.08169,0 2.39504,-0.0646 2.88707,-0.59531 z m -7.44377,-4.29482 c -0.23059,-0.35192 -1.28358,-1.13914 -2.33998,-1.74937 -1.05641,-0.61024 -3.82574,-2.26172 -6.15407,-3.66994 -2.32834,-1.40823 -8.04333,-4.74367 -12.7,-7.41208 -4.65667,-2.66842 -9.40283,-5.49979 -10.54702,-6.29194 -1.86376,-1.2903 -2.12234,-1.39828 -2.48358,-1.03704 -0.22177,0.22177 -0.33977,0.56856 -0.26222,0.77065 0.13646,0.35562 5.26719,3.49909 12.63136,7.73893 1.96453,1.13106 6.76638,3.95777 10.67078,6.28158 10.9301,6.50537 12.38762,7.20505 11.18473,5.36921 z M 69.729401,80.029381 c 3.56526,-2.13755 8.565885,-5.11221 11.1125,-6.61037 2.546614,-1.49815 6.31067,-3.71922 8.364569,-4.9357 2.053898,-1.21649 3.851148,-2.21179 3.993888,-2.21179 0.14274,0 0.473007,-0.23589 0.733926,-0.52421 0.388228,-0.42898 0.413822,-0.59719 0.140902,-0.92604 -0.484,-0.58318 -0.852033,-0.50565 -2.289534,0.48235 -0.707553,0.48631 -2.834273,1.75672 -4.726043,2.82315 -5.944328,3.35092 -15.051401,8.75039 -24.27744,14.39377 -2.008665,1.22866 -2.577767,1.8145 -2.577767,2.65355 0,0.51981 0.777059,0.1001 9.524999,-5.14471 z"
       id="path1" /></g></svg>
